<?xml version="1.0" standalone="no"?><!DOCTYPE svg PUBLIC "-//W3C//DTD SVG 1.1//EN" "http://www.w3.org/Graphics/SVG/1.1/DTD/svg11.dtd"><svg t="1594735556268" class="icon" viewBox="0 0 1024 1024" version="1.1" xmlns="http://www.w3.org/2000/svg" p-id="15027" xmlns:xlink="http://www.w3.org/1999/xlink" width="200" height="200"><defs><style type="text/css"></style></defs><path d="M512.154 102.656A409.293 409.293 0 0 0 102.81 512a409.293 409.293 0 0 0 409.344 409.293A409.293 409.293 0 0 0 921.446 512a409.293 409.293 0 0 0-409.292-409.344z" fill="#ffd739" p-id="15028" data-spm-anchor-id="a313x.7781069.0.i41" class=""></path><path d="M238.336 370.893c0 27.597 0 54.989 0.46 82.534 0.308 14.336 0.769 28.672 1.895 43.008 1.229 17.101 3.123 34.509 4.66 51.968 0 0.768 0.511 1.434 0.511 1.895 5.888-0.308 11.674-0.768 17.408-0.768 24.474-0.666 48.384 2.662 71.322 11.673 11.213 4.506 22.118 9.677 31.744 16.947 7.987 6.042 9.83 13.517 5.53 24.525a33.024 33.024 0 0 1-12.442 16.384c-13.568 10.701-27.546 20.07-43.93 25.498a211.763 211.763 0 0 1-35.174 8.601c-15.565 2.304-31.437 3.43-47.309 4.967-3.277 0.512-6.4 0-9.83 0-1.536 0-2.048-0.768-2.048-2.304-0.154-7.015-0.768-14.336-1.229-21.658a872.09 872.09 0 0 0-2.816-27.801l-4.608-38.759c-1.587-13.67-3.482-27.238-5.018-40.806-1.536-13.415-2.816-26.624-4.659-39.885-2.201-15.104-4.25-30.054-6.553-45.414a407.962 407.962 0 0 0-10.394-53.095c-0.307-0.768 0.46-2.304 0.922-2.816a2047.847 2047.847 0 0 0 46.08-18.227c4.966-2.202 5.478-2.97 5.478 3.584z m330.035 0c0 27.597 0 54.989 0.461 82.534 0.307 14.336 0.768 28.672 1.894 43.008 1.23 17.101 3.124 34.509 4.66 51.968 0 0.768 0.512 1.434 0.512 1.895 5.888-0.308 11.673-0.768 17.408-0.768 24.473-0.666 48.384 2.662 71.321 11.673 11.213 4.506 22.067 9.677 31.744 16.947 8.09 6.042 9.882 13.517 5.376 24.423a33.075 33.075 0 0 1-12.39 16.333c-13.568 10.752-27.597 20.07-43.93 25.548a211.763 211.763 0 0 1-35.174 8.55c-15.616 2.356-31.488 3.482-47.36 5.018-3.226 0.461-6.4 0-9.83 0-1.537 0-2.049-0.768-2.049-2.304-0.153-7.014-0.716-14.336-1.177-21.657a875.008 875.008 0 0 0-2.816-27.853l-4.66-38.707c-1.535-13.722-3.43-27.29-4.966-40.858-1.536-13.363-2.816-26.624-4.71-39.833-2.202-15.104-4.199-30.055-6.503-45.466a407.962 407.962 0 0 0-10.444-53.043c-0.154-0.82 0.665-2.355 1.075-2.663 15.36-5.939 30.72-11.98 46.08-18.278 5.017-2.202 5.478-2.97 5.478 3.584zM479.13 518.195c8.14 0 16.384 0.154 24.473 0.512 2.048 0 3.123 1.536 3.123 3.38 0.205 4.249 0.512 8.14 0.512 12.339 0 18.995-0.307 38.348 0 57.292 0.256 15.36 0.768 30.413 1.024 45.773 0 0.768 0 1.895 0.308 3.584-8.704-0.051-17.46 0.205-25.703-0.051-0.768 0-2.048-1.28-2.048-2.048-1.177-13.568-2.253-27.034-3.533-40.602l-3.43-37.683c-1.024-12.8-2.304-25.753-3.43-38.758 0-0.768 0-1.536-0.308-2.663a42.906 42.906 0 0 1 9.012-1.075z m330.086 0c8.14 0 16.384 0.154 24.474 0.512 2.048 0 3.123 1.536 3.123 3.38 0.205 4.249 0.512 8.14 0.512 12.339 0 18.995-0.307 38.348 0 57.292 0.307 15.36 0.768 30.413 1.024 45.773 0 0.768 0 1.895 0.307 3.584-8.704-0.051-17.46 0.205-25.702-0.051-0.768 0-2.048-1.28-2.048-2.048-1.178-13.568-2.253-27.034-3.533-40.602l-3.43-37.683c-1.025-12.8-2.305-25.753-3.431-38.758 0-0.768 0-1.536-0.307-2.663a42.906 42.906 0 0 1 9.011-1.075z m-403.354-1.126c0.922 6.246 2.048 12.441 2.765 18.995 1.434 10.65 2.304 21.35 3.43 31.949 1.076 9.37 2.049 18.534 3.175 27.853 1.024 9.83 2.304 19.763 3.584 30.003 0.256 2.816 0.717 5.939 1.024 9.011-9.062 1.126-17.92 2.202-27.29 3.482a14628.352 14628.352 0 0 1-23.654-120.679c6.502-0.768 12.8-1.894 18.995-2.662 4.506-0.666 9.216-0.666 13.568-1.075 2.509-0.308 4.045 0.768 4.403 3.123z m330.087 0c0.973 6.246 2.048 12.441 2.765 18.995 1.433 10.65 2.355 21.35 3.481 31.949l3.072 27.853 3.584 30.003c0.307 2.816 0.768 5.939 1.075 9.011-9.062 1.126-17.92 2.202-27.29 3.482-8.14-40.346-15.871-80.077-23.654-120.679 6.503-0.768 12.8-1.894 19.047-2.662 4.505-0.666 9.165-0.666 13.517-1.075 2.508-0.308 4.044 0.768 4.403 3.123zM443.597 404.224l2.304 35.174c1.024 15.872 2.304 31.744 3.43 47.616 0.768 11.52 1.229 22.887 2.304 34.458 1.075 12.595 2.304 25.088 3.43 37.478 1.076 9.012 1.895 18.535 2.663 27.546 1.075 9.83 2.202 19.814 2.816 30.054l0.768 8.55c0.051 1.537-0.717 1.844-2.253 1.537-8.09-0.768-15.872-1.229-24.473-1.997-7.322-73.933-13.568-148.48-27.546-222.976l13.824-1.536 16.23-1.024c4.506-0.358 6.196 0.717 6.503 5.12z m330.035 0l2.304 35.174c1.024 15.872 2.304 31.744 3.43 47.616 0.768 11.52 1.28 22.887 2.304 34.458 1.076 12.595 2.304 25.088 3.482 37.478 1.024 9.012 1.843 18.535 2.662 27.546 1.024 9.83 2.15 19.814 2.765 30.054l0.768 8.55c0.103 1.537-0.665 1.844-2.253 1.537-8.14-0.768-15.872-1.229-24.473-1.997-7.322-73.933-13.568-148.48-27.546-222.976l13.824-1.536 16.23-1.024c4.506-0.358 6.196 0.717 6.503 5.12z m-293.12 53.76v0.102c2.048 0 2.765 0.461 2.765 2.765-0.307 6.247 0 12.8 0 18.995v23.655c-4.66 0.512-8.858 0.768-13.056 1.024-1.28-15.053-2.355-30.31-3.584-46.541h13.824z m330.086 0v0.102c2.048 0 2.765 0.461 2.765 2.765-0.307 6.247 0 12.8 0 18.995v23.655c-4.659 0.512-8.857 0.768-13.056 1.024-1.28-15.053-2.355-30.31-3.584-46.541h13.875z m-308.121 0.205c2.304 0 3.43 0.768 3.43 3.584v42.65l-16.896-0.769V458.24h13.466z m330.086 0c2.304 0 3.43 0.768 3.43 3.584v42.65l-16.895-0.769V458.24h13.465z m-458.393-2.611c2.201-0.308 1.536 1.536 1.894 2.764l1.536 15.412c0.768 8.14 1.894 15.872 2.662 24.012v3.124l-12.595 2.201c-2.816-15.104-5.478-30.054-8.243-45.465 4.966-0.512 9.728-1.639 14.746-2.048z m330.086 0c2.202-0.308 1.536 1.536 1.894 2.764l1.536 15.412c0.768 8.14 1.895 15.872 2.663 24.012v3.124l-12.595 2.201c-2.816-15.104-5.479-30.054-8.244-45.465 4.916-0.512 9.728-1.639 14.746-2.048z m-308.02-2.51c1.537 0 2.356 0.974 2.714 2.817 1.383 14.336 2.663 28.313 4.199 43.11-5.479 0.666-10.599 0.768-16.384 1.229l-5.888-46.848c5.325-0.307 10.393-0.307 15.36-0.307z m330.138 0c1.536 0 2.304 0.974 2.663 2.817 1.382 14.336 2.662 28.313 4.198 43.11-5.478 0.666-10.598 0.768-16.384 1.229l-5.888-46.848c5.274-0.307 10.394-0.307 15.36-0.307z" fill="#f0fff3" p-id="15029" data-spm-anchor-id="a313x.7781069.0.i42" class=""></path><path d="M269.517 578.765c2.355 16.793 4.71 33.74 7.014 51.2 14.336-10.752 28.007-21.3 41.882-31.744-1.843-2.355-39.885-17.46-48.896-19.456z m330.137 0c2.304 16.793 4.66 33.74 6.964 51.2 14.336-10.752 28.006-21.3 41.881-31.744-1.843-2.355-39.833-17.46-48.845-19.456z" fill="#c299fc" p-id="15030" data-spm-anchor-id="a313x.7781069.0.i45" class=""></path></svg>