<?xml version="1.0" standalone="no"?><!DOCTYPE svg PUBLIC "-//W3C//DTD SVG 1.1//EN" "http://www.w3.org/Graphics/SVG/1.1/DTD/svg11.dtd"><svg t="1594732533380" class="icon" viewBox="0 0 1071 1024" version="1.1" xmlns="http://www.w3.org/2000/svg" p-id="2968" data-spm-anchor-id="a313x.7781069.0.i3" xmlns:xlink="http://www.w3.org/1999/xlink" width="209.1796875" height="200"><defs><style type="text/css"></style></defs><path d="M237.619752 940.118598a18.509754 18.509754 0 0 1-9.855023-2.842795C85.144867 847.784619 0 701.589152 0 546.18303c0-134.88746 72.725011-250.582896 204.794946-325.847472a18.572927 18.572927 0 0 1 18.370773 32.268881C103.1366 320.91996 37.120584 425.155774 37.120584 546.132491c0 142.544055 78.650659 276.989303 210.379459 359.645144a18.560292 18.560292 0 0 1-9.892926 34.290424z" fill="#2c2c2c" p-id="2969" data-spm-anchor-id="a313x.7781069.0.i4" class="selected"></path><path d="M535.607832 1024c-84.652115 0-165.614915-17.107308-240.677335-50.829173a18.560292 18.560292 0 0 1 15.161573-33.860846c70.248621 31.58661 146.107024 47.5568 225.465224 47.5568 274.854048 0 498.474613-197.681642 498.474613-440.683751 0-97.438375-42.199711-183.770898-122.038027-249.660568-9.981369-8.237788-20.720816-16.286056-31.902476-23.892112a18.566609 18.566609 0 0 1 20.885066-30.702185c12.129258 8.250423 23.791035 16.993596 34.656829 25.951559 88.669932 73.179859 135.531827 169.417943 135.531827 278.303306 0.050539 263.470233-240.222488 477.81697-535.557294 477.81697z" fill="#2c2c2c" p-id="2970" data-spm-anchor-id="a313x.7781069.0.i2" class="selected"></path><path d="M736.764001 462.491147a18.674004 18.674004 0 0 1-7.151208-1.427715l-170.453984-71.095142-171.603736 67.999655a18.572927 18.572927 0 0 1-24.928153-21.478895l32.698459-141.381668-133.573457-102.568041a18.560292 18.560292 0 0 1 9.400175-33.19121l190.416721-19.646871L547.004281 8.439942C550.466174 3.120757 556.050687 0.467482 562.734413 0a18.572927 18.572927 0 0 1 15.565882 8.717904L661.360445 141.508014l190.037682 23.083495a18.572927 18.572927 0 0 1 8.844251 33.35546l-135.456019 100.180093L754.919985 440.064654a18.572927 18.572927 0 0 1-18.155984 22.426493z m-177.365134-111.184868a18.787716 18.787716 0 0 1 7.151209 1.427715l144.704579 60.368329-25.269288-119.005712a18.560292 18.560292 0 0 1 7.100669-18.724543l107.520822-79.598258-152.525424-18.471849a18.547658 18.547658 0 0 1-13.4938-8.578924l-72.333337-115.644897-74.392785 114.31826a18.572927 18.572927 0 0 1-13.65805 8.338865l-152.879193 15.768036 106.067837 81.468185a18.560292 18.560292 0 0 1 6.784804 18.951966l-27.417178 118.538231 145.791158-57.752958a18.535023 18.535023 0 0 1 6.847977-1.339273z" fill="#2c2c2c" p-id="2971"></path><path d="M555.469493 269.029477c-32.142535 0-58.296248-22.742359-58.296248-50.79127s26.153713-50.778635 58.296248-50.778634 58.296248 22.742359 58.296248 50.778634-26.153713 50.791269-58.296248 50.79127z m0-64.436685c-12.470394 0-21.163029 7.189112-21.163029 13.645415s8.692635 13.65805 21.163029 13.658051 21.163029-7.201747 21.163029-13.658051-8.629462-13.632781-21.163029-13.632781z" fill="#2c2c2c" p-id="2972"></path></svg>