<?xml version="1.0" encoding="UTF-8"?>
<svg xmlns="http://www.w3.org/2000/svg" xmlns:xlink="http://www.w3.org/1999/xlink" width="300pt" height="300pt" viewBox="0 0 300 300" version="1.1">
<g id="surface1">
<path style=" stroke:none;fill-rule:nonzero;fill:rgb(17.254902%,17.254902%,17.254902%);fill-opacity:1;" d="M 249.132812 105.550781 C 278.292969 154.003906 268.15625 216.433594 225.167969 253.171875 C 182.175781 289.910156 118.929688 290.191406 75.617188 253.835938 C 32.300781 217.480469 21.613281 155.140625 50.339844 106.433594 C 37.496094 90.308594 33.351562 81.167969 33.351562 57.074219 C 33.351562 43.023438 40.789062 30.742188 47.09375 19.160156 C 48.804688 41.273438 59.921875 61.585938 77.625 74.945312 C 119.574219 41.25 179.230469 40.96875 221.496094 74.269531 C 239.886719 60.824219 251.449219 39.984375 253.121094 17.261719 C 259.308594 28.84375 266.628906 41.121094 266.628906 55.175781 C 266.628906 79.761719 262.367188 88.796875 249.132812 105.550781 Z M 149.992188 61.355469 C 92.628906 61.335938 46.113281 107.828125 46.101562 165.191406 C 46.089844 222.550781 92.585938 269.0625 149.949219 269.066406 C 207.308594 269.074219 253.816406 222.574219 253.816406 165.210938 C 253.824219 107.863281 207.339844 61.363281 149.992188 61.355469 Z M 210.675781 127.269531 L 210.675781 148.136719 L 189.816406 148.136719 L 189.816406 128.992188 L 177.644531 133.796875 L 173.824219 124.746094 L 222.238281 105.617188 L 226.074219 114.667969 L 194.175781 127.269531 Z M 183.78125 193.023438 L 176.613281 193.023438 C 173.714844 181.941406 163.703125 174.210938 152.246094 174.210938 C 140.792969 174.210938 130.777344 181.941406 127.878906 193.023438 L 119.578125 193.023438 C 122.28125 177.40625 135.828125 166 151.679688 165.996094 C 167.527344 165.996094 181.078125 177.402344 183.78125 193.019531 Z M 108.269531 128.894531 L 108.269531 148.144531 L 87.410156 148.144531 L 87.410156 127.269531 L 104.25 127.269531 L 72.214844 114.367188 L 76.050781 105.152344 L 124.414062 124.632812 L 120.59375 133.847656 Z M 108.269531 128.894531 "/>
</g>
</svg>
