<?xml version="1.0" encoding="UTF-8"?>
<svg xmlns="http://www.w3.org/2000/svg" xmlns:xlink="http://www.w3.org/1999/xlink" width="300pt" height="300pt" viewBox="0 0 300 300" version="1.1">
<g id="surface1">
<path style=" stroke:none;fill-rule:nonzero;fill:rgb(100%,84.313725%,22.352941%);fill-opacity:1;" d="M 32.5 132.375 L 104.75 60 L 125.875 81.25 C 122.875 91.875 127.75 103.5 137.5 109.125 L 137.5 178.375 C 130 182.625 125 190.75 125 200 C 125 213.808594 136.191406 225 150 225 C 163.808594 225 175 213.808594 175 200 C 175 190.75 170 182.625 162.5 178.375 L 162.5 117.625 L 188.375 143.75 C 187.5 145.625 187.5 147.75 187.5 150 C 187.5 163.808594 198.691406 175 212.5 175 C 226.308594 175 237.5 163.808594 237.5 150 C 237.5 136.191406 226.308594 125 212.5 125 C 210.25 125 208.125 125 206.25 125.875 L 174.125 93.75 C 177.335938 81.777344 171.191406 69.273438 159.75 64.5 C 154.375 62.5 148.75 62 143.75 63.375 L 122.5 42.25 L 132.375 32.5 C 142.125 22.625 157.875 22.625 167.625 32.5 L 267.5 132.375 C 277.375 142.125 277.375 157.875 267.5 167.625 L 167.625 267.5 C 157.875 277.375 142.125 277.375 132.375 267.5 L 32.5 167.625 C 22.625 157.875 22.625 142.125 32.5 132.375 Z M 32.5 132.375 "/>
</g>
</svg>
