<?xml version="1.0" encoding="UTF-8"?>
<svg xmlns="http://www.w3.org/2000/svg" xmlns:xlink="http://www.w3.org/1999/xlink" width="300pt" height="300pt" viewBox="0 0 300 300" version="1.1">
<g id="surface1">
<path style=" stroke:none;fill-rule:nonzero;fill:rgb(59.607843%,32.156863%,97.647059%);fill-opacity:1;" d="M 150 36.914062 C 77.203125 36.914062 18.199219 97.410156 18.199219 172.0625 C 18.199219 231.757812 55.960938 282.414062 108.339844 300.28125 C 114.929688 301.523438 117.347656 297.347656 117.347656 293.769531 C 117.347656 290.5625 117.226562 282.0625 117.160156 270.78125 C 80.496094 278.953125 72.753906 252.660156 72.753906 252.660156 C 66.769531 237.0625 58.125 232.910156 58.125 232.910156 C 46.152344 224.519531 59.035156 224.683594 59.035156 224.683594 C 72.261719 225.640625 79.210938 238.609375 79.210938 238.609375 C 90.976562 259.257812 110.066406 253.308594 117.578125 249.835938 C 118.773438 241.105469 122.191406 235.152344 125.945312 231.769531 C 96.675781 228.363281 65.910156 216.777344 65.910156 164.988281 C 65.910156 150.238281 71.042969 138.167969 79.476562 128.722656 C 78.125 125.308594 73.601562 111.566406 80.761719 92.960938 C 80.761719 92.960938 91.832031 89.335938 117.007812 106.8125 C 127.527344 103.8125 138.796875 102.320312 150.011719 102.265625 C 161.203125 102.320312 172.484375 103.8125 183.003906 106.8125 C 208.15625 89.328125 219.207031 92.960938 219.207031 92.960938 C 226.398438 111.566406 221.886719 125.308594 220.523438 128.722656 C 228.980469 138.167969 234.066406 150.238281 234.066406 164.988281 C 234.066406 216.898438 203.257812 228.332031 173.898438 231.667969 C 178.621094 235.84375 182.839844 244.082031 182.839844 256.699219 C 182.839844 274.769531 182.675781 289.332031 182.675781 293.769531 C 182.675781 297.382812 185.046875 301.589844 191.738281 300.261719 C 244.070312 282.359375 281.800781 231.734375 281.800781 172.0625 C 281.800781 97.410156 222.785156 36.914062 150 36.914062 "/>
</g>
</svg>
