<?xml version="1.0" encoding="UTF-8"?>
<svg xmlns="http://www.w3.org/2000/svg" xmlns:xlink="http://www.w3.org/1999/xlink" width="300pt" height="300pt" viewBox="0 0 300 300" version="1.1">
<g id="surface1">
<path style=" stroke:none;fill-rule:nonzero;fill:rgb(40.784314%,2.745098%,97.647059%);fill-opacity:1;" d="M 180.976562 186.039062 C 171.578125 186.953125 162.109375 185.230469 153.636719 181.0625 C 149.757812 177.960938 147.332031 173.390625 146.9375 168.4375 C 146.929688 167.695312 146.628906 166.988281 146.097656 166.472656 C 145.566406 165.957031 144.851562 165.675781 144.113281 165.6875 C 140.152344 165.648438 136.195312 165.648438 132.238281 165.6875 C 130.800781 165.542969 129.515625 166.578125 129.351562 168.011719 C 128.894531 176.714844 132.347656 185.164062 138.761719 191.0625 C 146.761719 197.308594 156.476562 200.96875 166.613281 201.550781 C 177.171875 202.773438 187.859375 202.316406 198.273438 200.199219 C 206.273438 198.707031 213.605469 194.757812 219.25 188.898438 C 225.59375 181.078125 227.464844 170.539062 224.199219 161.011719 C 221.46875 154.316406 215.792969 149.261719 208.824219 147.324219 C 192.824219 141.699219 175.523438 142.136719 159.199219 137.863281 C 156.363281 136.988281 152.898438 136.011719 151.636719 133.011719 C 150.140625 128.683594 151.570312 123.882812 155.1875 121.074219 C 160.316406 118.144531 166.15625 116.6875 172.0625 116.875 C 180.066406 116.125 188.132812 117.28125 195.601562 120.25 C 200.144531 122.921875 203.285156 127.457031 204.1875 132.648438 C 204.230469 134.222656 205.464844 135.503906 207.039062 135.601562 C 210.960938 135.675781 214.886719 135.613281 218.824219 135.625 C 220.234375 135.789062 221.550781 134.894531 221.914062 133.523438 C 221.980469 122.742188 216.335938 112.726562 207.074219 107.199219 C 194.515625 101.402344 180.570312 99.265625 166.851562 101.039062 C 156.796875 101.453125 147.191406 105.3125 139.648438 111.976562 C 132.589844 119.589844 130.484375 130.5625 134.226562 140.25 C 137.113281 146.6875 142.675781 151.539062 149.449219 153.523438 C 165.414062 159.289062 182.898438 157.4375 199 162.539062 C 202.148438 163.601562 205.800781 165.238281 206.761719 168.726562 C 207.8125 172.984375 206.53125 177.484375 203.386719 180.550781 C 196.6875 184.714844 188.839844 186.636719 180.976562 186.039062 Z M 253.710938 80.476562 C 222.5625 62.859375 191.398438 45.253906 160.226562 27.664062 C 153.867188 24.105469 146.121094 24.105469 139.761719 27.664062 L 46.625 80.261719 C 40.472656 83.609375 36.621094 90.03125 36.5625 97.039062 L 36.5625 202.976562 C 36.667969 210.113281 40.679688 216.617188 47.011719 219.914062 C 55.925781 224.761719 64.585938 230.113281 73.675781 234.648438 C 84.300781 240.328125 96.980469 240.675781 107.898438 235.585938 C 116.109375 230.445312 120.875 221.246094 120.335938 211.574219 C 120.398438 176.613281 120.335938 141.648438 120.363281 106.699219 C 120.488281 105.925781 120.277344 105.136719 119.78125 104.527344 C 119.289062 103.917969 118.558594 103.546875 117.773438 103.511719 C 113.804688 103.46875 109.832031 103.46875 105.863281 103.511719 C 105.121094 103.449219 104.386719 103.703125 103.84375 104.210938 C 103.300781 104.71875 103 105.429688 103.011719 106.175781 C 102.960938 140.914062 103.023438 175.648438 102.988281 210.398438 C 103.003906 215.3125 99.960938 219.714844 95.363281 221.4375 C 90.136719 222.984375 84.5 222.226562 79.863281 219.363281 L 55.085938 205.363281 C 53.964844 204.832031 53.292969 203.660156 53.398438 202.425781 L 53.398438 97.585938 C 53.285156 96.195312 54.074219 94.882812 55.363281 94.335938 C 86.304688 76.902344 117.242188 59.457031 148.175781 42 C 149.273438 41.246094 150.726562 41.246094 151.824219 42 L 244.648438 94.324219 C 245.925781 94.882812 246.707031 96.1875 246.601562 97.574219 L 246.601562 202.425781 C 246.707031 203.667969 246.042969 204.847656 244.925781 205.398438 C 214.457031 222.632812 183.972656 239.839844 153.460938 257.023438 C 152.011719 257.824219 150.289062 259.136719 148.585938 258.148438 C 140.585938 253.625 132.710938 248.925781 124.738281 244.363281 C 123.90625 243.722656 122.765625 243.652344 121.863281 244.1875 C 118.355469 246.242188 114.664062 247.96875 110.835938 249.335938 C 109.113281 250.039062 106.988281 250.238281 105.800781 251.835938 C 107.316406 253.484375 109.15625 254.800781 111.199219 255.710938 L 139.148438 271.875 C 145.429688 275.816406 153.351562 276.035156 159.835938 272.449219 C 190.886719 254.949219 221.9375 237.433594 252.988281 219.898438 C 259.308594 216.601562 263.320312 210.105469 263.4375 202.976562 L 263.4375 97.039062 C 263.378906 90.179688 259.671875 83.867188 253.710938 80.476562 Z M 253.710938 80.476562 "/>
</g>
</svg>
