<?xml version="1.0" encoding="UTF-8"?>
<svg xmlns="http://www.w3.org/2000/svg" xmlns:xlink="http://www.w3.org/1999/xlink" width="300pt" height="300pt" viewBox="0 0 300 300" version="1.1">
<g id="surface1">
<path style=" stroke:none;fill-rule:nonzero;fill:rgb(40.784314%,2.745098%,97.647059%);fill-opacity:1;" d="M 112.46875 80.199219 C 106.84375 79.578125 98.398438 81.625 93.695312 84.761719 L 33.699219 124.757812 C 28.984375 127.890625 25.144531 135.085938 25.144531 140.738281 L 25.144531 264.101562 C 25.144531 269.753906 29.769531 274.386719 35.421875 274.386719 L 261.585938 274.386719 C 267.242188 274.386719 271.871094 269.753906 271.871094 264.101562 L 271.871094 140.734375 C 271.871094 135.089844 268.023438 127.890625 263.316406 124.757812 L 221.921875 97.164062 C 217.214844 94.023438 208.765625 90.941406 203.152344 90.320312 Z M 112.46875 80.199219 "/>
<path style=" stroke:none;fill-rule:nonzero;fill:rgb(40.784314%,2.745098%,97.647059%);fill-opacity:1;" d="M 203.160156 90.320312 L 157.8125 85.257812 L 112.46875 80.199219 C 106.851562 79.578125 98.410156 81.625 93.695312 84.757812 L 63.699219 104.761719 L 33.703125 124.761719 C 30.839844 126.664062 28.296875 130.074219 26.746094 133.71875 L 148.324219 213.667969 L 270.179688 133.484375 C 268.613281 129.921875 266.125 126.625 263.324219 124.757812 L 242.625 110.957031 L 221.914062 97.152344 C 217.210938 94.023438 208.773438 90.941406 203.160156 90.320312 Z M 203.160156 90.320312 "/>
<path style=" stroke:none;fill-rule:nonzero;fill:rgb(94.117647%,100%,95.294118%);fill-opacity:1;" d="M 71.40625 233.257812 L 50.84375 233.257812 C 48.003906 233.257812 45.703125 230.960938 45.703125 228.125 C 45.703125 225.285156 48.003906 222.980469 50.84375 222.980469 L 71.40625 222.980469 C 74.238281 222.980469 76.542969 225.289062 76.542969 228.125 C 76.542969 230.960938 74.238281 233.257812 71.40625 233.257812 Z M 112.527344 253.820312 L 50.84375 253.820312 C 48.007812 253.820312 45.703125 251.519531 45.703125 248.679688 C 45.703125 245.84375 48.007812 243.546875 50.84375 243.546875 L 112.527344 243.546875 C 115.367188 243.546875 117.667969 245.84375 117.667969 248.679688 C 117.671875 251.515625 115.367188 253.820312 112.527344 253.820312 Z M 112.527344 253.820312 "/>
<path style=" stroke:none;fill-rule:nonzero;fill:rgb(76.078431%,60%,98.823529%);fill-opacity:1;" d="M 241.023438 152.664062 L 148.277344 213.667969 L 55.980469 152.949219 L 55.980469 27.9375 L 199.90625 27.9375 L 241.023438 69.0625 Z M 241.023438 152.664062 "/>
<path style=" stroke:none;fill-rule:nonzero;fill:rgb(80%,81.960784%,85.098039%);fill-opacity:1;" d="M 199.90625 69.0625 L 241.023438 69.0625 L 199.90625 27.9375 Z M 199.90625 69.0625 "/>
<path style=" stroke:none;fill-rule:nonzero;fill:rgb(59.607843%,32.156863%,97.647059%);fill-opacity:1;" d="M 159.765625 208.523438 C 156.941406 205.367188 152.847656 203.382812 148.277344 203.382812 C 143.714844 203.382812 139.609375 205.371094 136.785156 208.523438 L 132.855469 213.664062 L 132.855469 218.800781 C 132.855469 227.324219 139.761719 234.21875 148.273438 234.21875 C 156.789062 234.21875 163.691406 227.324219 163.691406 218.800781 L 163.691406 213.664062 Z M 159.765625 208.523438 "/>
<path style=" stroke:none;fill-rule:nonzero;fill:rgb(59.607843%,32.156863%,97.647059%);fill-opacity:1;" d="M 132.859375 213.667969 C 132.859375 222.183594 139.761719 229.085938 148.277344 229.085938 C 156.792969 229.085938 163.695312 222.183594 163.695312 213.667969 C 163.695312 205.152344 156.792969 198.25 148.277344 198.25 C 139.761719 198.25 132.859375 205.152344 132.859375 213.667969 Z M 132.859375 213.667969 "/>
<path style=" stroke:none;fill-rule:nonzero;fill:rgb(100%,84.313725%,22.352941%);fill-opacity:1;" d="M 169.925781 77.351562 C 161.539062 77.351562 153.945312 80.792969 148.511719 86.351562 C 143.070312 80.792969 135.476562 77.351562 127.089844 77.351562 C 110.53125 77.351562 97.105469 90.769531 97.105469 107.332031 C 97.105469 141.601562 148.511719 171.585938 148.511719 171.585938 C 148.511719 171.585938 199.90625 141.601562 199.90625 107.332031 C 199.90625 90.769531 186.480469 77.351562 169.925781 77.351562 Z M 169.925781 77.351562 "/>
<path style=" stroke:none;fill-rule:nonzero;fill:rgb(94.117647%,100%,95.294118%);fill-opacity:1;" d="M 169.925781 77.351562 C 168.171875 77.351562 166.453125 77.5 164.789062 77.789062 C 178.890625 80.230469 189.628906 92.523438 189.628906 107.332031 C 189.628906 134.890625 156.386719 159.675781 143.371094 168.328125 C 146.539062 170.429688 148.511719 171.582031 148.511719 171.582031 C 148.511719 171.582031 199.90625 141.597656 199.90625 107.328125 C 199.90625 90.769531 186.480469 77.347656 169.925781 77.347656 Z M 169.925781 77.351562 "/>
</g>
</svg>
