<?xml version="1.0" encoding="UTF-8"?>
<svg xmlns="http://www.w3.org/2000/svg" xmlns:xlink="http://www.w3.org/1999/xlink" width="300pt" height="300pt" viewBox="0 0 300 300" version="1.1">
<g id="surface1">
<path style=" stroke:none;fill-rule:nonzero;fill:rgb(76.078431%,60%,98.823529%);fill-opacity:1;" d="M 216.839844 181.5625 C 213.109375 180.476562 209.207031 182.621094 208.125 186.351562 C 202.800781 204.679688 192.8125 218.398438 179.25 226.039062 C 176.46875 227.613281 175.097656 230.859375 175.910156 233.949219 C 176.722656 237.039062 179.515625 239.195312 182.710938 239.195312 C 183.914062 239.195312 185.101562 238.882812 186.148438 238.289062 C 202.984375 228.8125 215.25 212.207031 221.628906 190.28125 C 222.714844 186.550781 220.570312 182.644531 216.839844 181.5625 Z M 216.839844 181.5625 "/>
<path style=" stroke:none;fill-rule:nonzero;fill:rgb(76.078431%,60%,98.823529%);fill-opacity:1;" d="M 120.179688 223.832031 C 102.054688 211.542969 91.242188 186.300781 91.242188 156.332031 C 91.242188 111.023438 136.425781 57.5 151.710938 40.679688 C 164.539062 54.773438 198.378906 94.648438 208.988281 134.046875 C 210.070312 137.710938 213.878906 139.84375 217.566406 138.851562 C 221.257812 137.859375 223.480469 134.105469 222.582031 130.390625 C 208.519531 78.097656 158.832031 27.578125 156.710938 25.449219 C 153.914062 22.789062 149.527344 22.789062 146.726562 25.449219 C 143.886719 28.3125 77.179688 96.257812 77.179688 156.332031 C 77.179688 190.992188 90.304688 220.585938 112.289062 235.492188 C 114.367188 236.984375 117.089844 237.234375 119.40625 236.140625 C 121.71875 235.046875 123.253906 232.78125 123.414062 230.226562 C 123.574219 227.671875 122.335938 225.230469 120.179688 223.855469 Z M 120.179688 223.832031 "/>
<path style=" stroke:none;fill-rule:nonzero;fill:rgb(100%,84.313725%,22.352941%);fill-opacity:1;" d="M 151.738281 163.382812 C 147.855469 163.382812 144.707031 166.53125 144.707031 170.414062 L 144.707031 269.535156 C 144.707031 273.417969 147.855469 276.566406 151.738281 276.566406 C 155.621094 276.566406 158.769531 273.417969 158.769531 269.535156 L 158.769531 170.414062 C 158.769531 166.53125 155.621094 163.382812 151.738281 163.382812 Z M 151.738281 163.382812 "/>
<path style=" stroke:none;fill-rule:nonzero;fill:rgb(76.078431%,60%,98.823529%);fill-opacity:1;" d="M 222.671875 158.527344 C 222.570312 158.082031 222.445312 157.644531 222.296875 157.214844 C 222.105469 156.792969 221.886719 156.386719 221.644531 155.996094 C 221.382812 155.621094 221.085938 155.273438 220.753906 154.964844 C 217.96875 152.316406 213.597656 152.316406 210.816406 154.964844 C 210.492188 155.285156 210.195312 155.628906 209.925781 155.996094 C 209.675781 156.375 209.46875 156.785156 209.3125 157.214844 C 209.128906 157.636719 208.988281 158.078125 208.890625 158.527344 C 208.796875 158.988281 208.75 159.460938 208.753906 159.933594 C 208.753906 160.851562 208.945312 161.761719 209.3125 162.605469 C 209.660156 163.460938 210.171875 164.238281 210.816406 164.902344 C 211.46875 165.554688 212.25 166.0625 213.109375 166.402344 C 213.949219 166.777344 214.863281 166.96875 215.785156 166.964844 C 217.648438 166.960938 219.4375 166.21875 220.753906 164.902344 C 221.394531 164.226562 221.914062 163.453125 222.296875 162.605469 C 222.632812 161.753906 222.808594 160.847656 222.816406 159.933594 C 222.8125 159.460938 222.765625 158.988281 222.671875 158.527344 Z M 222.671875 158.527344 "/>
</g>
</svg>
