<?xml version="1.0" encoding="UTF-8"?>
<svg xmlns="http://www.w3.org/2000/svg" xmlns:xlink="http://www.w3.org/1999/xlink" width="300pt" height="300pt" viewBox="0 0 300 300" version="1.1">
<g id="surface1">
<path style=" stroke:none;fill-rule:nonzero;fill:rgb(40.784314%,2.745098%,97.647059%);fill-opacity:1;" d="M 148.507812 230.390625 C 147.625 230.390625 146.777344 230.15625 146.015625 229.71875 L 138.105469 225.03125 C 136.933594 224.355469 137.492188 224.121094 137.898438 224.003906 C 139.484375 223.445312 139.804688 223.332031 141.476562 222.363281 C 141.648438 222.273438 141.882812 222.304688 142.0625 222.390625 L 148.15625 225.996094 C 148.359375 226.113281 148.679688 226.113281 148.886719 225.996094 L 172.585938 212.3125 C 172.792969 212.195312 172.941406 211.933594 172.941406 211.667969 L 172.941406 184.304688 C 172.941406 184.042969 172.792969 183.78125 172.558594 183.660156 L 148.859375 169.980469 C 148.652344 169.863281 148.359375 169.863281 148.125 169.980469 L 124.453125 183.691406 C 124.21875 183.808594 124.070312 184.070312 124.070312 184.335938 L 124.070312 211.699219 C 124.070312 211.960938 124.21875 212.199219 124.453125 212.34375 L 130.957031 216.09375 C 134.472656 217.851562 136.640625 215.773438 136.640625 213.691406 L 136.640625 186.679688 C 136.640625 186.296875 136.933594 186.007812 137.3125 186.007812 L 140.304688 186.007812 C 140.683594 186.007812 140.976562 186.296875 140.976562 186.679688 L 140.976562 213.691406 C 140.976562 218.378906 138.429688 221.101562 133.945312 221.101562 C 132.570312 221.101562 131.484375 221.101562 128.46875 219.609375 L 122.257812 216.035156 C 120.734375 215.15625 119.765625 213.484375 119.765625 211.699219 L 119.765625 184.335938 C 119.765625 182.546875 120.703125 180.90625 122.257812 180.027344 L 145.984375 166.347656 C 147.480469 165.496094 149.472656 165.496094 150.96875 166.347656 L 174.667969 180.027344 C 176.191406 180.90625 177.15625 182.578125 177.15625 184.335938 L 177.15625 211.699219 C 177.15625 213.484375 176.191406 215.125 174.667969 216.007812 L 150.96875 229.6875 C 150.234375 230.15625 149.355469 230.359375 148.507812 230.390625 "/>
<path style=" stroke:none;fill-rule:nonzero;fill:rgb(100%,84.313725%,22.352941%);fill-opacity:1;" d="M 155.828125 211.523438 C 145.460938 211.523438 143.289062 206.75 143.289062 202.765625 C 143.289062 202.382812 143.585938 202.089844 143.964844 202.089844 L 147.039062 202.089844 C 147.390625 202.089844 147.65625 202.324219 147.714844 202.675781 C 148.183594 205.78125 149.5625 207.363281 155.828125 207.363281 C 160.839844 207.363281 162.949219 206.222656 162.949219 203.585938 C 162.949219 202.0625 162.332031 200.917969 154.570312 200.15625 C 148.066406 199.511719 144.050781 198.078125 144.050781 192.890625 C 144.050781 188.117188 148.09375 185.273438 154.832031 185.273438 C 162.421875 185.273438 166.171875 187.910156 166.667969 193.5625 C 166.699219 193.769531 166.609375 193.945312 166.492188 194.09375 C 166.375 194.238281 166.171875 194.296875 165.996094 194.296875 L 162.917969 194.296875 C 162.597656 194.296875 162.332031 194.0625 162.246094 193.769531 C 161.511719 190.488281 159.726562 189.433594 154.832031 189.433594 C 149.382812 189.433594 148.738281 191.339844 148.738281 192.746094 C 148.738281 194.472656 149.5 194.972656 156.855469 195.9375 C 164.148438 196.90625 167.605469 198.28125 167.605469 203.378906 C 167.605469 208.535156 163.300781 211.496094 155.800781 211.496094 M 184.65625 182.550781 L 185.449219 182.550781 C 186.09375 182.550781 186.242188 182.082031 186.242188 181.816406 C 186.242188 181.113281 185.773438 181.113281 185.476562 181.113281 L 184.660156 181.113281 L 184.660156 182.550781 Z M 183.691406 180.324219 L 185.449219 180.324219 C 186.0625 180.324219 187.234375 180.324219 187.234375 181.671875 C 187.234375 182.609375 186.621094 182.8125 186.269531 182.929688 C 186.972656 182.988281 187.03125 183.429688 187.117188 184.101562 C 187.179688 184.511719 187.234375 185.214844 187.382812 185.449219 L 186.296875 185.449219 C 186.269531 185.214844 186.09375 183.898438 186.09375 183.839844 C 186.035156 183.546875 185.917969 183.398438 185.566406 183.398438 L 184.65625 183.398438 L 184.65625 185.449219 L 183.691406 185.449219 Z M 181.582031 182.871094 C 181.582031 185.011719 183.308594 186.710938 185.390625 186.710938 C 187.527344 186.710938 189.226562 184.953125 189.226562 182.871094 C 189.226562 180.734375 187.5 179.0625 185.390625 179.0625 C 183.308594 179.035156 181.550781 180.703125 181.582031 182.871094 M 189.960938 182.871094 C 189.960938 185.390625 187.910156 187.441406 185.390625 187.441406 C 182.898438 187.441406 180.820312 185.421875 180.820312 182.871094 C 180.820312 180.292969 182.957031 178.300781 185.390625 178.300781 C 187.851562 178.300781 189.960938 180.292969 189.960938 182.871094 "/>
<path style=" stroke:none;fill-rule:nonzero;fill:rgb(40.784314%,2.745098%,97.647059%);fill-opacity:1;" d="M 75.085938 123.339844 C 75.085938 122.257812 74.5 121.257812 73.5625 120.703125 L 48.429688 106.230469 C 48.015625 105.96875 47.519531 105.851562 47.050781 105.820312 L 46.789062 105.820312 C 46.320312 105.851562 45.820312 105.96875 45.410156 106.230469 L 20.273438 120.703125 C 19.335938 121.257812 18.75 122.257812 18.75 123.339844 L 18.808594 162.304688 C 18.808594 162.832031 19.101562 163.359375 19.570312 163.625 C 20.039062 163.914062 20.625 163.914062 21.0625 163.625 L 36.007812 155.070312 C 36.945312 154.511719 37.53125 153.515625 37.53125 152.429688 L 37.53125 134.238281 C 37.53125 133.152344 38.117188 132.15625 39.050781 131.601562 L 45.410156 127.9375 C 45.878906 127.675781 46.40625 127.527344 46.933594 127.527344 C 47.460938 127.527344 47.988281 127.675781 48.457031 127.9375 L 54.8125 131.601562 C 55.75 132.128906 56.335938 133.152344 56.335938 134.238281 L 56.335938 152.429688 C 56.335938 153.515625 56.921875 154.511719 57.859375 155.070312 L 72.800781 163.625 C 73.269531 163.914062 73.855469 163.914062 74.324219 163.625 C 74.792969 163.359375 75.085938 162.859375 75.085938 162.304688 Z M 193.679688 143.613281 C 193.679688 143.875 193.535156 144.140625 193.300781 144.257812 L 184.660156 149.238281 C 184.425781 149.382812 184.132812 149.382812 183.898438 149.238281 L 175.253906 144.257812 C 175.019531 144.109375 174.875 143.875 174.875 143.613281 L 174.875 133.652344 C 174.875 133.390625 175.019531 133.125 175.253906 133.007812 L 183.898438 128.027344 C 184.132812 127.882812 184.421875 127.882812 184.660156 128.027344 L 193.300781 133.007812 C 193.535156 133.15625 193.679688 133.390625 193.679688 133.652344 Z M 196.023438 69.8125 C 195.554688 69.550781 194.96875 69.550781 194.5 69.84375 C 194.03125 70.109375 193.742188 70.605469 193.742188 71.164062 L 193.742188 109.746094 C 193.742188 110.125 193.535156 110.476562 193.210938 110.65625 C 192.890625 110.828125 192.480469 110.828125 192.15625 110.65625 L 185.859375 107.023438 C 184.921875 106.464844 183.78125 106.464844 182.8125 107.023438 L 157.675781 121.523438 C 156.738281 122.050781 156.152344 123.078125 156.152344 124.160156 L 156.152344 153.195312 C 156.152344 154.277344 156.738281 155.273438 157.675781 155.828125 L 182.8125 170.359375 C 183.75 170.890625 184.890625 170.890625 185.859375 170.359375 L 210.996094 155.828125 C 211.933594 155.273438 212.519531 154.277344 212.519531 153.195312 L 212.519531 80.800781 C 212.519531 79.6875 211.933594 78.691406 210.96875 78.132812 Z M 279.726562 133.390625 C 280.664062 132.832031 281.25 131.835938 281.25 130.75 L 281.25 123.71875 C 281.25 122.636719 280.664062 121.640625 279.726562 121.082031 L 254.734375 106.582031 C 253.796875 106.023438 252.628906 106.023438 251.6875 106.582031 L 226.554688 121.082031 C 225.617188 121.640625 225.03125 122.636719 225.03125 123.71875 L 225.03125 152.726562 C 225.03125 153.808594 225.617188 154.835938 226.554688 155.359375 L 251.542969 169.601562 C 252.453125 170.125 253.59375 170.125 254.53125 169.628906 L 269.648438 161.21875 C 270.117188 160.957031 270.441406 160.457031 270.441406 159.902344 C 270.441406 159.34375 270.148438 158.847656 269.679688 158.585938 L 244.394531 144.082031 C 243.925781 143.820312 243.632812 143.320312 243.632812 142.765625 L 243.632812 133.652344 C 243.632812 133.09375 243.925781 132.597656 244.394531 132.332031 L 252.277344 127.792969 C 252.746094 127.527344 253.332031 127.527344 253.800781 127.792969 L 261.679688 132.332031 C 262.148438 132.597656 262.441406 133.09375 262.441406 133.652344 L 262.441406 140.800781 C 262.441406 141.328125 262.734375 141.855469 263.203125 142.117188 C 263.671875 142.382812 264.257812 142.382812 264.726562 142.117188 L 279.726562 133.386719 Z M 279.726562 133.390625 "/>
<path style=" stroke:none;fill-rule:nonzero;fill:rgb(100%,84.313725%,22.352941%);fill-opacity:1;" d="M 252.859375 132.039062 C 253.039062 131.921875 253.273438 131.921875 253.445312 132.039062 L 258.28125 134.824219 C 258.457031 134.941406 258.574219 135.117188 258.574219 135.320312 L 258.574219 140.890625 C 258.574219 141.09375 258.457031 141.296875 258.28125 141.386719 L 253.445312 144.171875 C 253.273438 144.285156 253.039062 144.285156 252.859375 144.171875 L 248.027344 141.386719 C 247.851562 141.269531 247.734375 141.09375 247.734375 140.890625 L 247.734375 135.320312 C 247.734375 135.117188 247.851562 134.914062 248.027344 134.824219 Z M 142.820312 121.757812 L 142.765625 121.699219 C 142.734375 121.671875 142.703125 121.640625 142.648438 121.609375 C 142.585938 121.554688 142.5 121.496094 142.441406 121.4375 C 142.414062 121.40625 142.414062 121.40625 142.382812 121.40625 L 142.121094 121.230469 L 125.742188 111.765625 L 123.136719 110.273438 L 117.101562 106.785156 C 116.835938 106.640625 116.574219 106.550781 116.308594 106.464844 C 116.074219 106.40625 115.839844 106.375 115.605469 106.375 L 115.28125 106.375 C 115.226562 106.375 115.164062 106.40625 115.109375 106.40625 C 115.046875 106.40625 114.992188 106.433594 114.960938 106.433594 C 114.902344 106.464844 114.8125 106.464844 114.757812 106.492188 C 114.726562 106.492188 114.667969 106.523438 114.640625 106.523438 C 114.550781 106.554688 114.492188 106.582031 114.433594 106.609375 L 114.40625 106.609375 C 114.316406 106.640625 114.226562 106.699219 114.140625 106.757812 L 94.863281 117.890625 L 89.210938 121.140625 L 89.148438 121.171875 C 88.210938 121.699219 87.625 122.695312 87.625 123.78125 L 87.625 152.664062 C 87.625 153.339844 87.863281 153.984375 88.242188 154.511719 C 88.300781 154.597656 88.390625 154.6875 88.476562 154.773438 L 88.535156 154.835938 C 88.59375 154.890625 88.683594 154.953125 88.742188 155.039062 L 88.796875 155.097656 C 88.886719 155.1875 89.003906 155.246094 89.121094 155.304688 L 110.917969 167.902344 L 114.140625 169.746094 C 114.40625 169.894531 114.667969 170.011719 114.960938 170.070312 C 115.019531 170.070312 115.078125 170.097656 115.109375 170.097656 C 115.195312 170.097656 115.253906 170.128906 115.34375 170.128906 C 115.429688 170.128906 115.488281 170.128906 115.578125 170.15625 L 115.664062 170.15625 C 115.78125 170.15625 115.871094 170.15625 115.988281 170.128906 L 116.105469 170.128906 C 116.191406 170.128906 116.28125 170.097656 116.367188 170.070312 C 116.398438 170.070312 116.425781 170.070312 116.457031 170.039062 L 116.515625 170.039062 L 116.777344 169.953125 C 116.808594 169.953125 116.808594 169.953125 116.835938 169.921875 L 117.1875 169.746094 L 142.179688 155.304688 C 142.9375 154.863281 143.46875 154.074219 143.640625 153.222656 C 143.671875 153.046875 143.703125 152.871094 143.703125 152.695312 L 143.703125 123.808594 C 143.640625 123.019531 143.351562 122.285156 142.820312 121.757812 Z M 142.820312 121.757812 "/>
</g>
</svg>
