<?xml version="1.0" encoding="UTF-8"?>
<svg xmlns="http://www.w3.org/2000/svg" xmlns:xlink="http://www.w3.org/1999/xlink" width="300pt" height="300pt" viewBox="0 0 300 300" version="1.1">
<g id="surface1">
<path style=" stroke:none;fill-rule:nonzero;fill:rgb(100%,84.313725%,22.352941%);fill-opacity:1;" d="M 0 0 L 300.167969 0 L 300.167969 257.144531 L 150.082031 257.144531 L 150.082031 300 L 83.378906 300 L 83.378906 257.144531 L 0 257.144531 Z M 16.675781 214.285156 L 50.027344 214.285156 L 50.027344 85.714844 L 66.703125 85.714844 L 66.703125 214.285156 L 83.378906 214.285156 L 83.378906 42.855469 L 16.675781 42.855469 Z M 100.054688 42.855469 L 100.054688 257.144531 L 133.40625 257.144531 L 133.40625 214.285156 L 166.757812 214.285156 L 166.757812 42.855469 Z M 133.40625 85.714844 L 150.082031 85.714844 L 150.082031 171.429688 L 133.40625 171.429688 Z M 183.433594 42.855469 L 183.433594 214.285156 L 216.785156 214.285156 L 216.785156 85.714844 L 233.464844 85.714844 L 233.464844 214.285156 L 250.140625 214.285156 L 250.140625 85.714844 L 266.816406 85.714844 L 266.816406 214.285156 L 283.492188 214.285156 L 283.492188 42.855469 Z M 183.433594 42.855469 "/>
<path style=" stroke:none;fill-rule:nonzero;fill:rgb(94.117647%,100%,95.294118%);fill-opacity:1;" d="M 16.675781 214.285156 L 50.027344 214.285156 L 50.027344 85.714844 L 66.703125 85.714844 L 66.703125 214.285156 L 83.378906 214.285156 L 83.378906 42.855469 L 16.675781 42.855469 Z M 100.054688 42.855469 L 100.054688 257.144531 L 133.40625 257.144531 L 133.40625 214.285156 L 166.757812 214.285156 L 166.757812 42.855469 Z M 150.082031 171.429688 L 133.40625 171.429688 L 133.40625 85.714844 L 150.082031 85.714844 Z M 183.433594 42.855469 L 183.433594 214.285156 L 216.785156 214.285156 L 216.785156 85.714844 L 233.464844 85.714844 L 233.464844 214.285156 L 250.140625 214.285156 L 250.140625 85.714844 L 266.816406 85.714844 L 266.816406 214.285156 L 283.492188 214.285156 L 283.492188 42.855469 Z M 183.433594 42.855469 "/>
</g>
</svg>
