<?xml version="1.0" encoding="UTF-8"?>
<svg xmlns="http://www.w3.org/2000/svg" xmlns:xlink="http://www.w3.org/1999/xlink" width="300pt" height="300pt" viewBox="0 0 300 300" version="1.1">
<g id="surface1">
<path style=" stroke:none;fill-rule:nonzero;fill:rgb(40.784314%,2.745098%,97.647059%);fill-opacity:1;" d="M 121.949219 88.199219 L 121.949219 9.375 C 121.972656 6.871094 120.980469 4.460938 119.199219 2.699219 C 117.421875 0.933594 115.003906 -0.0390625 112.5 0 L 78.449219 0 C 73.273438 0 69.074219 4.199219 69.074219 9.375 L 69.074219 88.199219 L 60.601562 100.875 C 43.101562 127.15625 33.761719 158.023438 33.75 189.597656 L 33.75 281.25 C 33.75 291.605469 42.144531 300 52.5 300 L 138.523438 300 C 143.535156 300.058594 148.363281 298.109375 151.929688 294.585938 C 155.492188 291.0625 157.5 286.261719 157.5 281.25 L 157.5 189.597656 C 157.488281 158.023438 148.148438 127.15625 130.648438 100.875 Z M 121.949219 88.199219 "/>
<path style=" stroke:none;fill-rule:nonzero;fill:rgb(76.078431%,60%,98.823529%);fill-opacity:1;" d="M 152.023438 149.25 C 147.542969 132.042969 140.246094 115.699219 130.425781 100.875 L 121.949219 88.199219 L 121.949219 9.375 C 121.972656 6.871094 120.980469 4.460938 119.199219 2.699219 C 117.421875 0.933594 115.003906 -0.0390625 112.5 0 L 78.449219 0 C 73.273438 0 69.074219 4.199219 69.074219 9.375 L 69.074219 88.199219 L 60.601562 100.875 C 43.101562 127.15625 33.761719 158.023438 33.75 189.597656 L 33.75 258.074219 C 90 253.800781 136.050781 209.472656 152.023438 149.25 Z M 152.023438 149.25 "/>
<path style=" stroke:none;fill-rule:nonzero;fill:rgb(100%,84.313725%,22.352941%);fill-opacity:1;" d="M 33.75 187.5 L 120 187.5 C 124.140625 187.5 127.5 190.859375 127.5 195 L 127.5 255 C 127.5 259.140625 124.140625 262.5 120 262.5 L 33.75 262.5 Z M 33.75 187.5 "/>
<path style=" stroke:none;fill-rule:nonzero;fill:rgb(100%,84.313725%,22.352941%);fill-opacity:1;" d="M 72.074219 28.125 L 118.949219 28.125 C 125.199219 28.125 128.324219 31.25 128.324219 37.5 C 128.324219 43.75 125.199219 46.875 118.949219 46.875 L 72.074219 46.875 C 65.824219 46.875 62.699219 43.75 62.699219 37.5 C 62.699219 31.25 65.824219 28.125 72.074219 28.125 Z M 72.074219 28.125 "/>
<path style=" stroke:none;fill-rule:nonzero;fill:rgb(94.117647%,100%,95.294118%);fill-opacity:1;" d="M 95.699219 202.5 C 89.574219 202.550781 83.90625 205.753906 80.699219 210.972656 C 77.496094 205.753906 71.828125 202.550781 65.699219 202.5 C 61.683594 202.375 57.796875 203.914062 54.957031 206.753906 C 52.113281 209.59375 50.574219 213.484375 50.699219 217.5 C 51.003906 225.3125 54.875 232.554688 61.199219 237.148438 C 67.0625 241.644531 73.625 245.144531 80.625 247.5 C 87.648438 245.171875 94.238281 241.703125 100.125 237.222656 C 106.472656 232.613281 110.347656 225.339844 110.625 217.5 C 110.75 213.496094 109.222656 209.621094 106.398438 206.78125 C 103.574219 203.945312 99.703125 202.394531 95.699219 202.5 Z M 95.699219 202.5 "/>
<path style=" stroke:none;fill-rule:nonzero;fill:rgb(100%,100%,100%);fill-opacity:1;" d="M 51.75 149.324219 C 51.074219 149.324219 51.152344 146.925781 51.226562 146.324219 C 53.203125 133.347656 58.101562 120.988281 65.550781 110.175781 C 66.527344 108.824219 68.851562 107.550781 70.125 108.074219 C 70.726562 108.351562 71.171875 108.882812 71.332031 109.527344 C 71.492188 110.167969 71.351562 110.847656 70.949219 111.375 C 69.601562 114.148438 63.449219 121.5 59.625 130.425781 C 53.851562 142.5 52.5 149.476562 51.75 149.324219 Z M 51.75 149.324219 "/>
<path style=" stroke:none;fill-rule:nonzero;fill:rgb(100%,100%,100%);fill-opacity:1;" d="M 70.726562 103.425781 C 70.726562 105.164062 72.136719 106.578125 73.875 106.578125 C 75.617188 106.578125 77.027344 105.164062 77.027344 103.425781 C 77.027344 101.683594 75.617188 100.273438 73.875 100.273438 C 72.136719 100.273438 70.726562 101.683594 70.726562 103.425781 Z M 70.726562 103.425781 "/>
<path style=" stroke:none;fill-rule:nonzero;fill:rgb(40.784314%,2.745098%,97.647059%);fill-opacity:1;" d="M 223.125 202.722656 L 234.375 202.722656 L 234.375 292.722656 L 223.125 292.722656 Z M 223.125 202.722656 "/>
<path style=" stroke:none;fill-rule:nonzero;fill:rgb(40.784314%,2.745098%,97.647059%);fill-opacity:1;" d="M 264.449219 300 L 193.050781 300 C 192.257812 299.988281 191.566406 299.464844 191.34375 298.707031 C 191.121094 297.949219 191.414062 297.136719 192.074219 296.699219 C 200.484375 291.070312 210.378906 288.070312 220.5 288.074219 L 237 288.074219 C 247.121094 288.070312 257.011719 291.070312 265.425781 296.699219 C 266.082031 297.136719 266.378906 297.949219 266.15625 298.707031 C 265.929688 299.464844 265.238281 299.988281 264.449219 300 Z M 228.75 205.5 C 218.984375 205.515625 209.648438 201.5 202.945312 194.398438 C 196.242188 187.300781 192.769531 177.746094 193.351562 168 L 198.75 70.5 L 258.75 70.5 L 264.148438 168 C 264.726562 177.746094 261.257812 187.300781 254.554688 194.398438 C 247.851562 201.5 238.511719 205.515625 228.75 205.5 Z M 228.75 205.5 "/>
<path style=" stroke:none;fill-rule:nonzero;fill:rgb(76.078431%,60%,98.823529%);fill-opacity:1;" d="M 193.351562 168.074219 C 192.734375 179.265625 197.5 190.078125 206.175781 197.175781 C 208.640625 197.710938 211.152344 197.988281 213.675781 198 C 223.4375 198.015625 232.777344 194 239.480469 186.898438 C 246.179688 179.800781 249.652344 170.246094 249.074219 160.5 L 244.125 70.5 L 198.75 70.5 Z M 193.351562 168.074219 "/>
</g>
</svg>
