<?xml version="1.0" encoding="UTF-8"?>
<svg xmlns="http://www.w3.org/2000/svg" xmlns:xlink="http://www.w3.org/1999/xlink" width="300pt" height="300pt" viewBox="0 0 300 300" version="1.1">
<g id="surface1">
<path style=" stroke:none;fill-rule:nonzero;fill:rgb(59.607843%,32.156863%,97.647059%);fill-opacity:1;" d="M 246.09375 18.164062 L 53.902344 18.164062 C 34.21875 18.164062 18.164062 33.929688 18.164062 53.839844 L 18.164062 245.648438 C 18.148438 255.125 21.910156 264.21875 28.617188 270.917969 C 35.328125 277.613281 44.429688 281.359375 53.90625 281.324219 L 246.097656 281.324219 C 265.777344 281.324219 281.839844 265.554688 281.839844 245.648438 L 281.839844 53.839844 C 281.835938 33.929688 265.777344 18.164062 246.09375 18.164062 Z M 246.09375 18.164062 "/>
<path style=" stroke:none;fill-rule:nonzero;fill:rgb(100%,100%,100%);fill-opacity:1;" d="M 257.226562 279.773438 C 253.863281 280.773438 250.375 281.296875 246.863281 281.324219 C 249.980469 281.324219 253.34375 280.800781 257.226562 279.773438 Z M 257.226562 279.773438 "/>
<path style=" stroke:none;fill-rule:nonzero;fill:rgb(6.666667%,6.666667%,6.666667%);fill-opacity:1;" d="M 18.164062 53.839844 L 18.164062 228.589844 Z M 42.769531 279.773438 C 46.65625 280.800781 50.019531 281.324219 53.648438 281.324219 C 50.019531 281.324219 46.65625 280.800781 42.769531 279.773438 Z M 42.769531 279.773438 "/>
<path style=" stroke:none;fill-rule:nonzero;fill:rgb(100%,100%,100%);fill-opacity:1;" d="M 259.296875 268.136719 C 259.296875 252.890625 247.128906 239.703125 231.839844 239.1875 C 231.328125 238.671875 230.8125 238.671875 230.289062 238.671875 C 229.773438 238.671875 229.25 238.671875 228.734375 239.1875 L 232.097656 239.1875 C 236.503906 241.253906 239.871094 253.40625 239.871094 268.136719 C 239.871094 273.050781 239.355469 277.441406 238.839844 281.324219 L 246.605469 281.324219 C 250.492188 281.324219 253.859375 280.800781 256.972656 279.773438 C 258.78125 275.894531 259.296875 272.015625 259.296875 268.136719 Z M 259.296875 268.136719 "/>
<path style=" stroke:none;fill-rule:nonzero;fill:rgb(6.666667%,6.666667%,6.666667%);fill-opacity:1;" d="M 71.519531 239.183594 C 71 238.667969 70.480469 238.667969 69.964844 238.667969 C 69.445312 238.667969 68.929688 238.667969 68.414062 239.183594 Z M 71.519531 239.183594 "/>
<path style=" stroke:none;fill-rule:nonzero;fill:rgb(100%,100%,100%);fill-opacity:1;" d="M 68.152344 239.183594 C 52.867188 239.699219 40.695312 252.886719 40.695312 268.132812 C 40.695312 272.011719 41.730469 275.890625 43.542969 279.769531 C 46.910156 280.796875 50.015625 281.320312 53.902344 281.320312 L 61.675781 281.320312 C 61.15625 277.4375 60.640625 273.046875 60.640625 268.132812 C 60.382812 253.40625 63.746094 241.25 68.152344 239.183594 Z M 228.480469 239.183594 C 213.199219 239.699219 201.023438 252.886719 201.023438 268.132812 C 201.023438 273.046875 202.0625 277.4375 204.386719 281.320312 L 222 281.320312 C 221.484375 277.4375 220.960938 273.046875 220.960938 268.132812 C 220.964844 253.40625 224.074219 241.25 228.480469 239.183594 Z M 155.4375 262.1875 L 144.558594 262.1875 C 141.191406 262.1875 140.15625 263.742188 141.710938 266.066406 L 145.078125 270.457031 C 146.109375 272.011719 147.929688 274.332031 148.445312 275.367188 C 148.960938 275.886719 148.960938 275.886719 150 275.886719 C 151.039062 275.886719 151.554688 275.367188 151.554688 275.367188 C 152.589844 274.332031 153.625 272.011719 154.917969 270.457031 L 157.765625 266.066406 C 159.839844 263.742188 158.804688 262.1875 155.4375 262.1875 Z M 71.519531 239.183594 C 75.921875 241.25 79.808594 253.402344 79.808594 268.132812 C 79.808594 273.046875 79.289062 277.4375 78.773438 281.320312 L 96.382812 281.320312 C 98.585938 277.273438 99.738281 272.742188 99.746094 268.132812 C 98.976562 252.890625 86.800781 239.699219 71.519531 239.183594 Z M 257.226562 279.773438 C 262.144531 278.21875 267.070312 275.375 270.957031 272.015625 C 266.554688 275.375 262.148438 277.964844 257.226562 279.773438 Z M 257.226562 279.773438 "/>
<path style=" stroke:none;fill-rule:nonzero;fill:rgb(6.666667%,6.666667%,6.666667%);fill-opacity:1;" d="M 30.339844 272.015625 C 23.082031 265.289062 18.164062 255.988281 18.164062 245.648438 L 18.164062 228.070312 L 18.164062 245.648438 C 18.164062 255.988281 22.5625 265.289062 30.339844 272.015625 Z M 42.769531 279.773438 C 37.847656 278.21875 33.445312 275.894531 29.558594 272.015625 C 33.441406 275.375 38.625 277.964844 42.769531 279.773438 Z M 42.769531 279.773438 "/>
<path style=" stroke:none;fill-rule:nonzero;fill:rgb(100%,84.313725%,22.352941%);fill-opacity:1;" d="M 270.175781 194.207031 C 259.820312 188.257812 249.199219 199.113281 247.644531 201.441406 C 233.917969 217.207031 218.636719 236.34375 191.183594 236.34375 L 108.8125 236.34375 C 81.359375 236.34375 66.59375 216.691406 52.351562 201.183594 C 50.273438 199.117188 40.175781 187.996094 29.816406 193.941406 C 20.492188 199.632812 18.679688 216.691406 18.164062 228.070312 L 18.164062 246.160156 C 18.164062 256.503906 22.5625 265.8125 30.339844 272.527344 C 34.234375 275.894531 38.710938 278.523438 43.546875 280.285156 C 41.988281 276.925781 40.699219 273.050781 40.699219 268.652344 C 40.699219 253.40625 52.871094 240.222656 68.15625 239.703125 C 68.671875 239.1875 69.1875 239.1875 69.707031 239.1875 C 70.226562 239.1875 70.746094 239.1875 71.261719 239.703125 C 86.539062 240.222656 98.71875 253.40625 98.71875 268.652344 C 98.71875 273.566406 97.683594 277.964844 95.355469 281.835938 L 204.132812 281.835938 C 201.933594 277.789062 200.78125 273.257812 200.773438 268.652344 C 200.773438 253.40625 212.949219 240.222656 228.226562 239.703125 C 228.742188 239.1875 229.257812 239.1875 229.78125 239.1875 C 230.296875 239.1875 230.820312 239.1875 231.335938 239.703125 C 246.613281 240.222656 258.789062 253.40625 258.789062 268.652344 C 258.789062 272.527344 257.75 276.410156 255.941406 280.285156 C 260.867188 278.734375 265.785156 275.894531 269.671875 272.527344 C 277.066406 265.972656 281.308594 256.5625 281.320312 246.675781 L 281.320312 228.585938 C 281.3125 216.691406 279.503906 199.632812 270.175781 194.207031 Z M 158.289062 266.070312 L 155.441406 269.945312 C 153.890625 271.5 152.589844 273.824219 152.074219 274.851562 C 151.554688 275.371094 151.039062 275.890625 150 275.890625 C 148.960938 275.890625 148.445312 275.371094 148.445312 275.371094 C 147.410156 274.335938 146.375 272.015625 145.078125 270.460938 L 141.710938 266.070312 C 140.15625 264 141.710938 262.191406 144.558594 262.191406 L 155.4375 262.191406 C 158.804688 262.1875 159.839844 263.742188 158.289062 266.070312 Z M 158.289062 266.070312 "/>
<path style=" stroke:none;fill-rule:nonzero;fill:rgb(100%,84.313725%,22.352941%);fill-opacity:1;" d="M 231.839844 239.183594 L 228.480469 239.183594 C 224.078125 241.25 220.707031 253.402344 220.707031 268.132812 C 220.707031 273.046875 221.230469 277.4375 221.742188 281.320312 L 238.839844 281.320312 C 239.355469 277.4375 239.871094 273.046875 239.871094 268.132812 C 239.617188 253.40625 236.253906 241.25 231.839844 239.183594 Z M 71.519531 239.183594 L 68.15625 239.183594 C 63.75 241.25 59.867188 253.402344 59.867188 268.132812 C 59.867188 273.046875 60.382812 277.4375 60.898438 281.320312 L 77.992188 281.320312 C 78.511719 277.4375 79.03125 273.046875 79.03125 268.132812 C 79.03125 253.40625 75.921875 241.25 71.519531 239.183594 Z M 71.519531 239.183594 "/>
<path style=" stroke:none;fill-rule:nonzero;fill:rgb(94.117647%,100%,95.294118%);fill-opacity:1;" d="M 105.96875 109.15625 L 143.78125 109.15625 L 143.78125 99.332031 L 104.929688 99.332031 L 104.929688 78.398438 L 140.15625 78.398438 L 140.15625 68.050781 L 59.867188 68.050781 L 59.867188 77.875 L 95.089844 77.875 L 95.089844 98.816406 L 55.976562 98.816406 L 55.976562 108.636719 L 93.792969 108.636719 C 89.910156 123.367188 77.992188 136.039062 55.976562 148.707031 L 60.894531 157.5 C 74.621094 149.742188 91.714844 138.367188 100.523438 120.785156 C 102.597656 125.183594 105.445312 129.574219 109.332031 133.972656 C 116.582031 142.246094 126.425781 149.742188 140.152344 157.5 L 145.074219 148.707031 C 122.023438 136.558594 109.851562 123.890625 105.96875 109.15625 Z M 193.511719 92.089844 L 203.359375 92.089844 L 203.359375 83.816406 L 224.855469 83.816406 L 224.855469 92.089844 L 234.695312 92.089844 L 234.695312 83.816406 L 244.546875 83.816406 L 244.546875 73.996094 L 234.695312 73.996094 L 234.695312 68.050781 L 224.855469 68.050781 L 224.855469 74.511719 L 203.359375 74.511719 L 203.359375 68.050781 L 193.511719 68.050781 L 193.511719 74.511719 L 184.191406 74.511719 L 184.191406 84.335938 L 193.511719 84.335938 Z M 173.570312 72.964844 C 168.132812 67.535156 159.324219 67.535156 154.402344 68.050781 L 153.371094 68.050781 L 153.371094 77.875 L 154.917969 77.875 C 158.289062 77.875 164.246094 77.875 167.09375 79.941406 C 167.617188 80.460938 168.648438 81.496094 168.648438 84.851562 L 168.648438 88.210938 L 153.371094 97.515625 L 158.292969 106.304688 L 168.652344 100.359375 L 168.652344 111.214844 L 153.375 120.523438 L 158.296875 129.308594 L 168.65625 123.363281 L 168.65625 131.636719 C 168.65625 133.703125 167.625 137.582031 165.808594 139.390625 C 160.890625 145.335938 153.117188 149.730469 153.117188 149.730469 L 158.042969 158.523438 C 158.558594 158.523438 167.882812 153.09375 173.324219 145.851562 C 176.167969 141.984375 178.246094 136.546875 178.246094 131.636719 L 178.246094 85.632812 C 177.96875 80.207031 176.417969 76.328125 173.570312 72.964844 Z M 183.929688 98.820312 L 183.929688 143.796875 C 183.929688 152.066406 190.398438 158.53125 198.6875 158.53125 L 229.511719 158.53125 C 237.804688 158.53125 244.277344 152.066406 244.277344 143.796875 L 244.277344 98.820312 Z M 209.308594 148.191406 L 198.945312 148.191406 C 196.097656 148.191406 194.027344 146.125 194.027344 143.28125 L 194.027344 133.457031 L 209.308594 133.457031 Z M 209.308594 123.375 L 194.027344 123.375 L 194.027344 108.640625 L 209.308594 108.640625 Z M 234.691406 143.796875 C 234.691406 146.636719 232.625 148.707031 229.777344 148.707031 L 219.410156 148.707031 L 219.410156 133.453125 L 234.691406 133.453125 Z M 234.691406 123.375 L 219.410156 123.375 L 219.410156 108.640625 L 234.691406 108.640625 Z M 234.691406 123.375 "/>
</g>
</svg>
