<?xml version="1.0" standalone="no"?><!DOCTYPE svg PUBLIC "-//W3C//DTD SVG 1.1//EN" "http://www.w3.org/Graphics/SVG/1.1/DTD/svg11.dtd"><svg t="1594648947525" class="icon" viewBox="0 0 1024 1024" version="1.1" xmlns="http://www.w3.org/2000/svg" p-id="3415" xmlns:xlink="http://www.w3.org/1999/xlink" width="200" height="200"><defs><style type="text/css"></style></defs><path d="M839.99389062 62H183.99232813C116.80170313 62 62.00014063 115.8171875 62.00014063 183.7671875v654.7078125a121.5703125 121.5703125 0 0 0 122.00625 121.78125h656.0015625c67.1765625 0 122.00625-53.83125 122.00625-121.78125V183.7671875C962.00014063 115.8171875 907.18451563 62 839.99389062 62z m0 0" fill="#fa4659" p-id="3416"></path><path d="M878.00482813 954.9546875a127.96875 127.96875 0 0 1-35.38125001 5.3015625c10.6453125 0 22.1203125-1.7859375 35.38125-5.3015625z m-1e-8 0" fill="#FFFFFF" p-id="3417"></path><path d="M62.00014063 183.7671875v596.4890625V183.7671875z m83.98125 771.1875c13.275 3.515625 24.75 5.3015625 37.1390625 5.3015625-12.3890625 0-23.8640625-1.7859375-37.1390625-5.3015625z m0 0" fill="#111111" p-id="3418"></path><path d="M885.06420313 915.2421875c0-52.0453125-41.5265625-97.059375-93.7125-98.8171875-1.7578125-1.7578125-3.515625-1.7578125-5.3015625-1.7578125-1.7578125 0-3.54375 0-5.3015625 1.7578125h11.475c15.046875 7.059375 26.5359375 48.5296875 26.5359375 98.8171875 0 16.7765625-1.7578125 31.753125-3.515625 45.0140625h26.5078125c13.2609375 0 24.75-1.7859375 35.38125-5.3015625 6.1734375-13.2328125 7.93125-26.4796875 7.93125-39.7125z m-1e-8 0" fill="#FFFFFF" p-id="3419"></path><path d="M244.12357812 816.4109375c-1.771875-1.7578125-3.54375-1.7578125-5.31562499-1.7578125s-3.5296875 0-5.2875 1.7578125h10.603125z m1e-8 0" fill="#111111" p-id="3420"></path><path d="M232.62045313 816.4109375c-52.171875 1.7578125-93.7125 46.771875-93.7125 98.8171875 0 13.2328125 3.5296875 26.4796875 9.7171875 39.7125 11.4890625 3.515625 22.0921875 5.3015625 35.3671875 5.3015625h26.521875c-1.771875-13.2609375-3.5296875-28.2375-3.5296875-45.0140625-0.871875-50.2734375 10.603125-91.7578125 25.6359375-98.8171875z m547.25625 0c-52.1578125 1.7578125-93.7125 46.771875-93.7125 98.8171875 0 16.7765625 3.54375 31.753125 11.475 45.0140625h60.1171875c-1.7578125-13.2609375-3.54375-28.2375-3.54375-45.0140625 0.0140625-50.2734375 10.63125-91.7578125 25.6640625-98.8171875zM530.56264063 894.9359375h-37.1390625c-11.4890625 0-15.01875 5.3015625-9.7171875 13.2328125l11.4890625 14.990625c3.5296875 5.3015625 9.73125 13.2328125 11.503125 16.7625 1.7578125 1.771875 1.7578125 1.771875 5.3015625 1.771875s5.3015625-1.771875 5.3015625-1.771875c3.54375-3.5296875 7.0734375-11.4609375 11.4890625-16.7625l9.7171875-14.990625c7.0734375-7.93125 3.54375-13.2328125-7.9453125-13.2328125z m-286.43906251-78.525c15.01875 7.059375 28.29375 48.5296875 28.29375 98.8171875 0 16.7765625-1.771875 31.753125-3.54375 45.0140625h60.1171875a94.528125 94.528125 0 0 0 11.475-45.0140625c-2.6296875-52.03125-44.184375-97.059375-96.3421875-98.8171875z m633.88125 138.54375c16.7765625-5.3015625 33.5953125-15.0046875 46.85625-26.4796875-15.01875 11.475-30.065625 20.30625-46.85625 26.4796875z m0 0" fill="#FFFFFF" p-id="3421"></path><path d="M103.55482813 928.475C78.79076563 905.525 62.00014063 873.771875 62.00014063 838.475V778.484375v59.990625c0 35.296875 15.01875 67.05 41.5546875 90z m42.4265625 26.4796875c-16.790625-5.3015625-31.8234375-13.2328125-45.084375-26.4796875 13.246875 11.475 30.9375 20.30625 45.084375 26.4796875z m0 0" fill="#111111" p-id="3422"></path><path d="M922.20326562 662.890625c-35.353125-20.30625-71.60625 16.7484375-76.9078125 24.69375-46.85625 53.8171875-99.0140625 119.1375-192.7265625 119.1375H371.41732813c-93.7125 0-144.1125-67.078125-192.7265625-120.009375-7.0875-7.059375-41.5546875-45.0140625-76.921875-24.721875C69.94545312 681.4109375 63.75795313 739.64375 62.00014063 778.484375v61.7484375c0 35.296875 15.01875 67.078125 41.5546875 90a144.6046875 144.6046875 0 0 0 45.084375 26.4796875c-5.315625-11.475-9.7171875-24.69375-9.7171875-39.7125 0-52.0453125 41.540625-97.0453125 93.7125-98.8171875 1.771875-1.7578125 3.5296875-1.7578125 5.3015625-1.7578125s3.54375 0 5.3015625 1.7578125c52.14375 1.771875 93.7265625 46.771875 93.7265625 98.8171875 0 16.7765625-3.54375 31.78125-11.4890625 45h371.2921875a94.6546875 94.6546875 0 0 1-11.4609375-45c0-52.0453125 41.5546875-97.0453125 93.7125-98.8171875 1.7578125-1.7578125 3.515625-1.7578125 5.3015625-1.7578125 1.7578125 0 3.54375 0 5.3015625 1.7578125 52.1578125 1.771875 93.7125 46.771875 93.7125 98.8171875 0 13.2328125-3.54375 26.4796875-9.7171875 39.7125 16.8046875-5.3015625 33.5953125-14.990625 46.85625-26.4796875a118.125 118.125 0 0 0 39.76875-88.2421875v-61.7484375c-0.028125-40.5984375-6.2015625-98.83125-38.0390625-117.3515625zM540.29389062 908.1828125l-9.71718749 13.2328125c-5.3015625 5.3015625-9.73125 13.2328125-11.503125 16.7484375-1.771875 1.771875-3.5296875 3.54375-7.0734375 3.54375s-5.3015625-1.771875-5.3015625-1.771875c-3.54375-3.5296875-7.0734375-11.4609375-11.503125-16.7625l-11.4890625-14.990625c-5.3015625-7.059375 0-13.2328125 9.7171875-13.2328125h37.1390625c11.4890625-0.0140625 15.01875 5.2875 9.73125 13.2328125z m1e-8 0" fill="#c6f1e7" p-id="3423"></path><path d="M791.35170312 816.4109375h-11.475c-15.01875 7.059375-26.5359375 48.5296875-26.5359375 98.8171875 0 16.7765625 1.7859375 31.753125 3.54375 45.0140625h58.359375c1.7578125-13.2609375 3.515625-28.2375 3.515625-45.0140625-0.871875-50.2734375-12.346875-91.7578125-27.4078125-98.8171875z m-547.228125 0h-11.4890625c-15.0328125 7.059375-28.29375 48.5296875-28.29375 98.8171875 0 16.7765625 1.771875 31.753125 3.5296875 45.0140625h58.3453125c1.771875-13.2609375 3.54375-28.2375 3.54375-45.0140625 0-50.2734375-10.6171875-91.7578125-25.6359375-98.8171875z m0 0" fill="#11cbd7" p-id="3424"></path><path d="M361.70014062 372.584375h129.0796875v-33.525H358.15639063V267.59375h120.24843749v-35.3109375H204.34076563v33.525h120.23437499v71.4796875H191.06576562v33.525h129.07968751c-13.246875 50.2875-53.9296875 93.5296875-129.07968751 136.771875l16.79062501 30.009375c46.85625-26.4796875 105.2015625-65.30625 135.2671875-125.3109375 7.0734375 15.0046875 16.790625 29.9953125 30.06562499 45.0140625 24.75 28.2375 58.3453125 53.8171875 105.2015625 80.296875l16.79062501-30.009375c-78.6796875-41.4703125-120.2203125-84.6984375-133.48125-135z m298.81406251-58.246875h33.6234375v-28.2375h73.3640625v28.2375h33.5953125v-28.2375h33.6234375v-33.525h-33.6234375v-20.2921875h-33.5953125v22.05h-73.3640625v-22.05h-33.6234375v22.05h-31.809375v33.5390625h31.809375v26.465625z m-68.0625-65.278125c-18.5625-18.534375-48.628125-18.534375-65.41875-16.7765625h-3.5296875v33.525h5.2875c11.503125 0 31.8375 0 41.5546875 7.059375 1.7859375 1.771875 5.3015625 5.3015625 5.3015625 16.7625v11.4609375l-52.14375 31.7671875 16.8046875 29.9953125 35.353125-20.2921875v37.0546875l-52.14375 31.7671875 16.8046875 29.9953125 35.353125-20.2921875v28.2375c0 7.0453125-3.515625 20.2921875-9.7171875 26.465625-16.790625 20.2921875-43.3125 35.296875-43.3125 35.296875l16.8046875 30.009375c1.7578125 0 33.5953125-18.534375 52.1578125-43.25625 9.7171875-13.2046875 16.8046875-31.753125 16.8046875-48.515625V292.2875c-0.9421875-18.5203125-6.24375-31.753125-15.9609375-43.228125z m35.3671875 88.2421875v153.5203125c0 28.2375 22.078125 50.3015625 50.371875 50.3015625H783.40639063c28.29375 0 50.4-22.0640625 50.4-50.3015625V337.3015625H627.81889062z m86.625 168.525H679.06264063c-9.7171875 0-16.7765625-7.059375-16.77656251-16.7625v-33.525h52.1578125v50.2875z m0-84.7125h-52.1578125v-50.2875h52.1578125v50.2875z m86.6390625 69.7078125c0 9.703125-7.059375 16.7625-16.7765625 16.7625h-35.38125v-52.059375h52.1578125v35.296875z m0-69.7078125h-52.1578125v-50.2875h52.1578125v50.2875z m0 0" fill="#f0fff3" p-id="3425"></path></svg>