<?xml version="1.0" standalone="no"?><!DOCTYPE svg PUBLIC "-//W3C//DTD SVG 1.1//EN" "http://www.w3.org/Graphics/SVG/1.1/DTD/svg11.dtd"><svg t="1594732664869" class="icon" viewBox="0 0 1024 1024" version="1.1" xmlns="http://www.w3.org/2000/svg" p-id="5724" data-spm-anchor-id="a313x.7781069.0.i7" xmlns:xlink="http://www.w3.org/1999/xlink" width="200" height="200"><defs><style type="text/css"></style></defs><path d="M510.5 104.8c55.1 0 108.5 10.8 158.7 32 48.6 20.5 92.2 50 129.6 87.4 37.5 37.5 66.9 81.1 87.4 129.6 21.3 50.3 32 103.7 32 158.7s-10.8 108.5-32 158.7c-20.5 48.6-50 92.2-87.4 129.6-37.5 37.5-81.1 66.9-129.6 87.4-50.3 21.3-103.7 32-158.7 32-55.1 0-108.5-10.8-158.7-32-48.6-20.5-92.2-50-129.6-87.4-37.5-37.5-66.9-81.1-87.4-129.6-21.3-50.3-32-103.7-32-158.7s10.8-108.5 32-158.7c20.5-48.6 50-92.2 87.4-129.6 37.5-37.5 81.1-66.9 129.6-87.4 50.2-21.2 103.6-32 158.7-32m0-40c-247.3 0-447.8 200.5-447.8 447.8s200.5 447.8 447.8 447.8S958.3 760 958.3 512.6 757.8 64.8 510.5 64.8z" fill="#333333" p-id="5725" data-spm-anchor-id="a313x.7781069.0.i8" class=""></path><path d="M513.2 513.7m-322.8 0a322.8 322.8 0 1 0 645.6 0 322.8 322.8 0 1 0-645.6 0Z" fill="#c299fc" p-id="5726" data-spm-anchor-id="a313x.7781069.0.i9" class="selected"></path></svg>