<?xml version="1.0" encoding="UTF-8"?>
<svg xmlns="http://www.w3.org/2000/svg" xmlns:xlink="http://www.w3.org/1999/xlink" width="300pt" height="300pt" viewBox="0 0 300 300" version="1.1">
<g id="surface1">
<path style=" stroke:none;fill-rule:nonzero;fill:rgb(76.078431%,60%,98.823529%);fill-opacity:1;" d="M 258.464844 219.566406 L 154.367188 278.433594 L 154.367188 232.597656 L 219.234375 196.898438 Z M 265.601562 213.101562 L 265.601562 89.964844 L 227.535156 111.96875 L 227.535156 191.132812 Z M 41.132812 219.566406 L 145.234375 278.46875 L 145.234375 232.597656 L 80.332031 196.898438 Z M 34 213.101562 L 34 89.964844 L 72.066406 111.964844 L 72.066406 191.132812 Z M 38.46875 81.964844 L 145.234375 21.566406 L 145.234375 65.898438 L 76.800781 103.535156 L 76.265625 103.832031 C 76.265625 103.867188 38.46875 81.96875 38.46875 81.96875 Z M 261.132812 81.964844 L 154.367188 21.601562 L 154.367188 65.933594 L 222.765625 103.535156 L 223.300781 103.832031 L 261.132812 81.96875 Z M 261.132812 81.964844 "/>
<path style=" stroke:none;fill-rule:nonzero;fill:rgb(100%,84.313725%,22.352941%);fill-opacity:1;" d="M 145.234375 222.132812 L 81.234375 186.933594 L 81.234375 117.234375 L 145.234375 154.199219 Z M 154.367188 222.132812 L 218.367188 186.96875 L 218.367188 117.234375 L 154.367188 154.199219 Z M 85.535156 109.167969 L 149.765625 73.867188 L 214 109.167969 L 149.800781 146.265625 Z M 85.535156 109.167969 "/>
</g>
</svg>
