<?xml version="1.0" encoding="UTF-8"?>
<svg xmlns="http://www.w3.org/2000/svg" xmlns:xlink="http://www.w3.org/1999/xlink" width="300pt" height="300pt" viewBox="0 0 300 300" version="1.1">
<g id="surface1">
<path style=" stroke:none;fill-rule:nonzero;fill:rgb(100%,84.313725%,22.352941%);fill-opacity:1;" d="M 269.085938 61.253906 C 250.882812 40.773438 223.578125 33.1875 199.304688 38.496094 C 193.234375 40.015625 190.203125 45.324219 190.960938 51.394531 C 192.476562 57.460938 197.785156 60.496094 203.855469 59.734375 C 221.300781 55.945312 241.023438 61.253906 253.917969 75.664062 C 266.8125 90.078125 270.605469 109.796875 264.535156 127.246094 C 263.777344 130.277344 263.777344 132.554688 265.296875 135.589844 C 266.8125 137.863281 269.085938 140.140625 271.363281 140.898438 C 276.671875 142.414062 282.742188 139.378906 285.015625 134.070312 C 291.84375 109.039062 287.292969 81.734375 269.085938 61.253906 Z M 269.085938 61.253906 "/>
<path style=" stroke:none;fill-rule:nonzero;fill:rgb(59.607843%,32.156863%,97.647059%);fill-opacity:1;" d="M 236.472656 128.003906 C 241.023438 129.519531 246.332031 127.246094 247.847656 121.933594 C 251.640625 109.796875 249.367188 96.902344 240.265625 87.042969 C 231.160156 77.183594 218.265625 73.390625 206.128906 75.664062 C 200.820312 76.421875 197.785156 81.734375 199.304688 86.285156 C 200.0625 91.59375 205.371094 94.628906 209.921875 93.109375 C 215.992188 91.59375 222.058594 93.871094 226.609375 98.421875 C 231.160156 102.972656 231.921875 109.796875 230.402344 115.867188 C 228.886719 121.175781 231.921875 126.484375 236.472656 128.003906 Z M 218.265625 145.449219 C 214.472656 143.933594 211.441406 143.171875 213.714844 138.621094 C 218.265625 127.246094 218.265625 117.382812 213.714844 110.558594 C 204.613281 97.664062 179.582031 98.421875 151.515625 110.558594 C 151.515625 110.558594 142.414062 114.347656 144.691406 107.523438 C 149.242188 93.109375 148.484375 81.734375 141.65625 74.90625 C 126.484375 59.734375 85.527344 75.664062 50.632812 110.558594 C 24.84375 137.105469 9.675781 164.410156 9.675781 188.683594 C 9.675781 234.953125 68.839844 263.019531 126.484375 263.019531 C 202.335938 263.019531 252.398438 219.023438 252.398438 184.132812 C 252.398438 162.894531 234.195312 150.757812 218.265625 145.449219 Z M 126.484375 246.332031 C 80.214844 250.882812 40.773438 229.644531 37.738281 200.0625 C 34.703125 169.722656 69.597656 141.65625 115.867188 137.105469 C 162.136719 132.554688 201.578125 153.792969 204.613281 183.375 C 207.648438 213.714844 172.753906 241.78125 126.484375 246.332031 Z M 126.484375 246.332031 "/>
<path style=" stroke:none;fill-rule:nonzero;fill:rgb(100%,84.313725%,22.352941%);fill-opacity:1;" d="M 131.035156 159.859375 C 109.039062 153.792969 84.007812 165.171875 74.90625 184.132812 C 65.046875 203.855469 74.90625 225.851562 96.902344 232.679688 C 119.660156 240.265625 146.964844 228.886719 156.066406 207.648438 C 165.171875 187.167969 153.792969 165.929688 131.035156 159.859375 Z M 114.347656 210.679688 C 109.796875 217.507812 100.695312 221.300781 93.109375 217.507812 C 86.285156 214.472656 84.007812 206.128906 88.558594 199.304688 C 93.109375 192.476562 102.214844 189.441406 109.039062 192.476562 C 116.625 194.753906 118.902344 203.097656 114.347656 210.679688 Z M 114.347656 210.679688 "/>
</g>
</svg>
