<?xml version="1.0" encoding="UTF-8"?>
<svg xmlns="http://www.w3.org/2000/svg" xmlns:xlink="http://www.w3.org/1999/xlink" width="300pt" height="300pt" viewBox="0 0 300 300" version="1.1">
<g id="surface1">
<path style=" stroke:none;fill-rule:nonzero;fill:rgb(17.254902%,17.254902%,17.254902%);fill-opacity:1;" d="M 244.914062 95.417969 L 277.746094 51.320312 C 284.058594 54.664062 288.558594 57.097656 291.234375 62.902344 C 293.726562 68.320312 295.011719 81.476562 293.972656 87.441406 Z M 286.84375 67.324219 C 284.816406 63.144531 283.238281 59.601562 278.75 57.609375 L 258.851562 86.386719 L 288.527344 82.554688 C 289.363281 77.390625 288.769531 72.03125 286.84375 67.324219 Z M 241.617188 30.65625 C 248.160156 28.113281 252.851562 26.316406 257.972656 28.5625 C 262.738281 30.636719 270.734375 39.546875 273.132812 44.886719 L 240.316406 90.410156 Z M 246.042969 72.359375 L 266.402344 45.582031 C 264.292969 41.011719 260.984375 37.441406 257.011719 35.4375 C 253.253906 33.902344 250.171875 32.5 245.71875 34.605469 Z M 131.765625 301.296875 C 68.152344 301.054688 16.726562 237.992188 16.855469 160.382812 C 16.988281 82.773438 68.625 19.964844 132.238281 20.046875 C 195.855469 20.125 247.386719 83.0625 247.386719 160.671875 C 247.289062 238.453125 195.523438 301.414062 131.765625 301.296875 Z M 131.765625 34.46875 C 74.675781 34.679688 28.519531 91.273438 28.632812 160.921875 C 28.746094 230.574219 75.089844 286.941406 132.179688 286.871094 C 189.269531 286.800781 235.519531 230.320312 235.519531 160.671875 C 235.429688 90.871094 188.980469 34.371094 131.765625 34.46875 Z M 206.511719 154.671875 L 157.605469 146.84375 L 157.773438 145.3125 L 156.984375 146.050781 L 152.421875 138.828125 L 191.441406 102.234375 L 196.003906 109.457031 L 164.707031 138.804688 L 207.453125 145.644531 Z M 164.367188 162.472656 C 161.566406 181.261719 148.15625 194.921875 132.5 194.921875 C 116.847656 194.921875 103.433594 181.261719 100.636719 162.472656 L 108.882812 162.472656 C 111.839844 175.796875 121.75 185.050781 133.066406 185.050781 C 144.378906 185.050781 154.289062 175.796875 157.25 162.472656 Z M 66.859375 121.679688 L 92.25 121.679688 L 92.25 148.875 L 66.859375 148.875 Z M 293.945312 96.082031 C 296.683594 103.820312 298.617188 109.371094 297.347656 115.855469 C 296.15625 121.894531 289.765625 132.589844 285.695312 136.082031 L 245.4375 100.703125 Z M 291.667969 115.394531 C 292.535156 110.648438 293.339844 106.730469 291.175781 101.515625 L 260.648438 105.820312 L 284.445312 127.929688 C 287.929688 124.851562 290.476562 120.4375 291.667969 115.394531 Z M 291.667969 115.394531 "/>
</g>
</svg>
