<?xml version="1.0" encoding="UTF-8"?>
<svg xmlns="http://www.w3.org/2000/svg" xmlns:xlink="http://www.w3.org/1999/xlink" width="300pt" height="300pt" viewBox="0 0 300 300" version="1.1">
<g id="surface1">
<path style=" stroke:none;fill-rule:nonzero;fill:rgb(40.784314%,2.745098%,97.647059%);fill-opacity:1;" d="M 298.152344 64.679688 C 298.152344 64.679688 296.382812 35.28125 291.03125 22.34375 C 284.253906 5.410156 276.59375 5.292969 273.109375 4.351562 C 248.117188 0 210.601562 0 210.601562 0 L 210.503906 0 C 210.503906 0 172.988281 0 147.945312 4.351562 C 144.460938 5.292969 136.847656 5.410156 130.023438 22.460938 C 124.671875 35.398438 122.902344 64.796875 122.902344 64.796875 C 122.902344 64.796875 121.136719 99.253906 121.136719 133.828125 L 121.136719 166.171875 C 121.136719 200.628906 122.902344 235.203125 122.902344 235.203125 C 122.902344 235.203125 124.671875 264.601562 130.023438 277.539062 C 136.800781 294.472656 145.738281 294.003906 149.714844 295.765625 C 164.003906 299.058594 210.503906 300 210.503906 300 C 210.503906 300 248.066406 299.882812 273.058594 295.53125 C 276.546875 294.589844 284.15625 294.472656 290.984375 277.421875 C 296.335938 264.484375 298.101562 235.085938 298.101562 235.085938 C 298.101562 235.085938 299.871094 200.628906 299.871094 166.050781 L 299.871094 133.710938 C 299.917969 99.136719 298.152344 64.679688 298.152344 64.679688 "/>
<path style=" stroke:none;fill-rule:nonzero;fill:rgb(100%,84.313725%,22.352941%);fill-opacity:1;" d="M 111.953125 242.609375 L 100.5625 242.609375 L 100.5625 226.851562 C 96.242188 238.730469 92.609375 244.609375 88.628906 244.609375 C 85.144531 244.609375 82.6875 240.613281 81.511719 233.554688 C 80.773438 229.203125 80.234375 222.382812 80.234375 212.503906 L 80.234375 97.726562 L 91.625 97.726562 L 91.625 215.210938 C 91.871094 219.207031 92.609375 220.738281 94.03125 220.738281 C 96.191406 220.738281 98.15625 216.152344 100.5625 208.035156 L 100.5625 97.726562 L 111.953125 97.726562 L 111.953125 242.609375 M 71.835938 145.121094 C 71.835938 129.597656 70.5625 118.070312 68.253906 110.664062 C 65.207031 100.785156 60.496094 96.667969 55.683594 96.667969 C 50.28125 96.667969 46.15625 100.667969 43.113281 110.664062 C 40.804688 117.953125 39.527344 129.714844 39.527344 145.238281 L 39.527344 196.746094 C 39.527344 212.152344 40.65625 222.734375 42.964844 230.027344 C 46.007812 239.90625 50.917969 245.082031 55.683594 245.082031 C 60.445312 245.082031 65.453125 239.90625 68.5 230.027344 C 70.804688 222.734375 71.835938 212.152344 71.835938 196.746094 L 71.835938 145.121094 M 60.445312 199.570312 C 61.035156 213.917969 59.167969 220.972656 55.632812 220.972656 C 52.097656 220.972656 50.230469 213.917969 50.820312 199.570312 L 50.820312 142.179688 C 50.230469 127.832031 52.097656 121.128906 55.632812 121.128906 C 59.167969 121.128906 61.035156 127.832031 60.445312 142.179688 Z M 26.957031 163.699219 L 26.957031 242.609375 L 14.976562 242.609375 L 14.976562 163.699219 C 14.976562 163.699219 2.554688 67.03125 0 49.039062 L 12.570312 49.039062 L 20.96875 124.539062 L 29.3125 49.039062 L 41.882812 49.039062 L 26.957031 163.699219 "/>
<path style=" stroke:none;fill-rule:nonzero;fill:rgb(94.117647%,100%,95.294118%);fill-opacity:1;" d="M 284.941406 175.226562 L 284.941406 145.941406 C 284.941406 130.65625 283.667969 119.484375 281.40625 112.191406 C 278.363281 102.429688 274.042969 97.257812 268.640625 97.257812 C 263.09375 97.257812 258.769531 102.429688 255.675781 112.191406 C 253.371094 119.484375 252.042969 131.242188 252.042969 146.53125 L 252.042969 196.746094 C 252.042969 211.917969 253.515625 222.617188 255.824219 229.792969 C 258.96875 239.554688 263.289062 244.492188 268.933594 244.492188 C 274.582031 244.492188 279.050781 239.316406 282.046875 228.96875 C 283.371094 224.382812 284.207031 219.207031 284.597656 213.445312 C 284.699219 210.859375 284.992188 204.976562 284.992188 196.511719 L 284.992188 192.394531 L 273.601562 192.394531 C 273.601562 202.863281 273.601562 208.976562 273.503906 210.386719 C 272.863281 217.328125 271.339844 220.855469 268.640625 220.855469 C 264.910156 220.855469 263.335938 214.152344 263.386719 200.980469 L 263.386719 175.226562 L 284.941406 175.226562 M 263.386719 137.828125 C 263.386719 124.421875 264.910156 120.777344 268.542969 120.777344 C 272.128906 120.777344 273.550781 124.773438 273.550781 138.0625 L 273.550781 153.703125 L 263.386719 153.703125 Z M 234.710938 96.902344 C 230.734375 96.902344 226.757812 102.785156 223.269531 113.132812 L 223.269531 50.449219 L 212.515625 50.449219 L 212.515625 242.609375 L 223.269531 242.609375 L 223.269531 228.144531 C 226.902344 238.847656 230.832031 244.375 234.710938 244.375 C 239.03125 244.375 242.175781 238.847656 243.648438 228.144531 C 244.382812 222.03125 244.824219 212.738281 244.824219 199.453125 L 244.824219 142.0625 C 244.824219 128.539062 244.089844 119.246094 243.351562 113.484375 C 241.929688 102.902344 239.03125 96.902344 234.710938 96.902344 M 233.484375 200.980469 C 233.484375 215.328125 232.058594 220.855469 228.964844 220.855469 C 227.199219 220.855469 225.136719 218.621094 223.320312 214.269531 L 223.320312 127.363281 C 225.136719 123.128906 227.199219 120.777344 228.964844 120.777344 C 232.109375 120.777344 233.484375 125.011719 233.484375 139.355469 Z M 203.53125 242.609375 L 192.140625 242.609375 L 192.140625 226.851562 C 187.816406 238.730469 184.183594 244.609375 180.207031 244.609375 C 176.71875 244.609375 174.265625 240.613281 173.085938 233.554688 C 172.351562 229.203125 171.808594 222.382812 171.808594 212.503906 L 171.808594 99.253906 L 183.203125 99.253906 L 183.203125 215.328125 C 183.449219 219.324219 184.183594 220.855469 185.609375 220.855469 C 187.769531 220.855469 189.734375 216.269531 192.140625 208.152344 L 192.140625 99.253906 L 203.53125 99.253906 L 203.53125 242.609375 "/>
<path style=" stroke:none;fill-rule:nonzero;fill:rgb(94.117647%,100%,95.294118%);fill-opacity:1;" d="M 160.417969 242.609375 L 148.4375 242.609375 L 148.4375 77.734375 L 135.867188 77.734375 L 135.867188 50.449219 L 173.578125 50.449219 L 173.578125 77.734375 L 160.417969 77.734375 L 160.417969 242.609375 "/>
</g>
</svg>
