<?xml version="1.0" encoding="UTF-8"?>
<svg xmlns="http://www.w3.org/2000/svg" xmlns:xlink="http://www.w3.org/1999/xlink" width="300pt" height="300pt" viewBox="0 0 300 300" version="1.1">
<g id="surface1">
<path style=" stroke:none;fill-rule:nonzero;fill:rgb(59.607843%,32.156863%,97.647059%);fill-opacity:1;" d="M 39.164062 0 L 234.164062 0 C 244.164062 0 249.164062 5 249.164062 15 L 249.164062 285 C 249.164062 295 244.164062 300 234.164062 300 L 39.164062 300 C 29.164062 300 24.164062 295 24.164062 285 L 24.164062 15 C 24.164062 5 29.164062 0 39.164062 0 Z M 39.164062 0 "/>
<path style=" stroke:none;fill-rule:nonzero;fill:rgb(59.607843%,32.156863%,97.647059%);fill-opacity:1;" d="M 64.554688 0 L 234.164062 0 C 244.164062 0 249.164062 5 249.164062 15 L 249.164062 285 C 249.164062 295 244.164062 300 234.164062 300 L 64.554688 300 C 54.554688 300 49.554688 295 49.554688 285 L 49.554688 15 C 49.554688 5 54.554688 0 64.554688 0 Z M 64.554688 0 "/>
<path style=" stroke:none;fill-rule:nonzero;fill:rgb(94.117647%,100%,95.294118%);fill-opacity:1;" d="M 118.5 157.292969 L 145.753906 157.292969 C 145.753906 150.886719 142.734375 147.132812 142.734375 147.132812 L 119.082031 147.132812 C 119.644531 135.523438 120.148438 120.625 120.328125 115.089844 L 142.828125 115.089844 C 142.828125 115.089844 142.703125 105.566406 140.203125 105.566406 L 100.664062 105.566406 C 100.664062 105.566406 103.042969 93.117188 106.21875 87.621094 C 106.21875 87.621094 94.410156 86.984375 90.382812 102.730469 C 86.351562 118.472656 80.308594 127.996094 79.671875 129.730469 C 79.03125 131.460938 83.148438 130.550781 84.886719 129.730469 C 86.628906 128.90625 94.488281 126.066406 96.789062 115.078125 L 109.003906 115.078125 C 109.171875 122.042969 109.65625 143.378906 109.503906 147.121094 L 84.328125 147.121094 C 80.757812 149.683594 79.566406 157.285156 79.566406 157.285156 L 108.34375 157.285156 C 107.140625 165.230469 105.042969 175.472656 102.085938 180.902344 C 97.417969 189.511719 94.945312 197.382812 78.085938 210.933594 C 78.085938 210.933594 75.339844 212.945312 83.851562 212.214844 C 92.367188 211.480469 100.425781 209.28125 106.007812 198.113281 C 109.285156 191.457031 112.042969 184.554688 114.253906 177.472656 L 114.253906 177.496094 L 137.957031 204.796875 C 137.957031 204.796875 141.070312 197.476562 138.78125 189.417969 L 121.203125 169.734375 L 115.25 174.136719 L 115.25 174.15625 C 116.902344 168.363281 118.09375 162.632812 118.460938 157.65625 Z M 157.457031 103.554688 L 157.457031 198.03125 L 167.390625 198.03125 L 171.464844 209.398438 L 188.679688 198.027344 L 210.375 198.027344 L 210.375 103.554688 Z M 200.152344 187.867188 L 188.863281 187.867188 L 174.796875 197.167969 L 171.472656 187.867188 L 167.96875 187.867188 L 167.96875 114.097656 L 200.152344 114.097656 Z M 200.152344 187.867188 "/>
<path style=" stroke:none;fill-rule:nonzero;fill:rgb(76.078431%,60%,98.823529%);fill-opacity:1;" d="M 38.863281 0 L 47.308594 0 L 47.308594 300 L 38.863281 300 C 30.582031 300 23.863281 293.285156 23.863281 285 L 23.863281 15 C 23.863281 6.714844 30.582031 0 38.863281 0 Z M 38.863281 0 "/>
</g>
</svg>
